<?xml version="1.0" encoding="utf-8"?>
<!-- Generator: Adobe Illustrator 18.0.0, SVG Export Plug-In . SVG Version: 6.00 Build 0)  -->
<!DOCTYPE svg PUBLIC "-//W3C//DTD SVG 1.1//EN" "http://www.w3.org/Graphics/SVG/1.1/DTD/svg11.dtd">
<svg version="1.1" id="Capa_1" xmlns="http://www.w3.org/2000/svg" xmlns:xlink="http://www.w3.org/1999/xlink" x="0px" y="0px"
	 viewBox="0 0 300 300" enable-background="new 0 0 300 300" xml:space="preserve">
<g>
	<path fill="#2D55BC" d="M62.7,38c0-0.1,0-0.3,0-0.4c0-0.2-0.2-0.3-0.3-0.1c-3,3-2.9,12.5-3.6,16.6c-1.6,8.7-2.2,17.7-3.2,26.5
		c-1.3,11.1,0.7,23.8,11.3,29.5c2.2,1.2,4.6-1.8,2.7-3.5c-9.3-8.4-9.4-18.8-8.7-30.4c0.3-5.4,0.8-10.8,1.1-16.2
		c0.4-5.2,2.8-17.2,0.5-21.8C62.6,38.1,62.7,38.1,62.7,38L62.7,38z"/>
	<path fill="#2D55BC" d="M58.1,99.2c-0.5,16-1.6,42.2,12.6,53.2c18.5,14.3,40.9,21,64.2,21.1c3.1,0,3.1-4.8,0-4.8
		c-19.8-0.1-37.7-5.3-54.6-15.5C60.6,141.3,64.7,118.6,59.1,99C58.9,98.5,58.1,98.6,58.1,99.2L58.1,99.2z"/>
	<path fill="#2D55BC" d="M68.6,147.3c6.1,23,9.1,42.9,32.4,53.4c22,9.9,50.1,13.7,73.5,7c2.2-0.6,1.8-4.3-0.5-4.1
		c-21.6,2.6-41,2-61.9-4.5c-9.3-2.9-18.1-7.1-25.2-13.7c-9-8.4-12.6-26.9-17.1-38.3C69.3,146.4,68.4,146.6,68.6,147.3L68.6,147.3z"
		/>
	<path fill="#2D55BC" d="M91.7,194.2c7.3,20.1,17.3,37.6,38.3,45.3c22.5,8.2,50-2.9,69.7-13.6c2.2-1.2,0.7-5-1.7-4.1
		c-20.6,7.9-38.9,17.3-61.7,13.9c-22-3.4-33.7-24.3-42.7-42.2C93,192.5,91.3,193.2,91.7,194.2L91.7,194.2z"/>
	<path fill="#2D55BC" d="M62.8,105.4c3.3,5,8.7,7.8,14.2,9.8c5.6,2.1,13,5.3,19,4.4c1-0.1,1.3-1.6,0.6-2.2
		c-3.7-3.4-9.6-3.9-14.4-5.4c-6.5-1.9-12.4-4.9-18.6-7.5C63.1,104.4,62.4,104.9,62.8,105.4L62.8,105.4z"/>
	<path fill="#2D55BC" d="M61.7,40.4c8.3,8.2,18.4,13.9,22.7,25.4c4.3,11.5,1.3,23.8,2.6,35.5c0.1,1.2,1.7,1.5,2.1,0.3
		c3.9-11.3,2.2-25.4-0.8-36.9c-3.2-12.5-15.7-19.1-26.2-24.8C61.8,39.7,61.4,40.2,61.7,40.4L61.7,40.4z"/>
	<path fill="#2D55BC" d="M82.1,56.2c12,14.7,32.2,16.9,43.7,33.5c15.1,21.7,8.8,47.7,5.1,71.5c-0.4,2.4,2.8,3.3,3.7,1
		c7.9-20.1,9.6-46.8-0.2-66.6c-10.7-21.5-30.5-31.2-52.1-39.7C82.1,55.9,82,56.1,82.1,56.2L82.1,56.2z"/>
	<path fill="#2D55BC" d="M129,87.8c58.1,7.6,54.5,76.8,58.7,120.8c0.3,3,4.7,3.1,4.8,0c0.8-45.9-5.2-119.1-63.5-124.3
		C126.7,84.1,126.8,87.5,129,87.8L129,87.8z"/>
	<path fill="#2D55BC" d="M176.8,121.9c13.7,12.2,27.6,23.3,33.9,41.3c6.3,18.2-1.3,37.9-4.9,55.7c-0.6,2.8,3.3,3.9,4.3,1.2
		c6.8-18.5,10.1-38.8,5.1-58.1c-4.5-17.7-21.9-33.3-37.6-41.2C177,120.4,176.1,121.3,176.8,121.9L176.8,121.9z"/>
	<path fill="#2D55BC" d="M62.6,41.1C77.9,86.7,97,128,128,165.1c32.3,38.6,82.8,55.1,111.5,96.2c1.7,2.5,6.1,1,5.1-2.2
		c-5.1-17.2-20.5-29.5-34.8-39c-22-14.7-44-27.5-63.5-45.7c-40-37.3-61.2-84.5-82.9-133.7C63.3,40.2,62.4,40.6,62.6,41.1L62.6,41.1z
		"/>
	<path fill="#2D55BC" d="M179.4,197.2c1.8,1.8,3.7,3.6,5.5,5.4c0.3,0.3,0.8-0.2,0.5-0.5c-2-1.7-3.9-3.4-5.9-5.1
		C179.4,197,179.3,197.1,179.4,197.2L179.4,197.2z"/>
	<path fill="#2D55BC" d="M179.8,194.4c2.1,2.1,4.3,4.1,6.4,6.2c0.4,0.4,1-0.2,0.6-0.6c-2.2-2-4.4-4-6.6-5.9
		C179.9,193.8,179.5,194.1,179.8,194.4L179.8,194.4z"/>
	<path fill="#2D55BC" d="M178.7,187.7c2.3,1.9,4.5,3.8,6.8,5.8c0.4,0.3,0.8-0.2,0.4-0.5c-2.4-1.8-4.7-3.6-7.1-5.4
		C178.7,187.5,178.6,187.7,178.7,187.7L178.7,187.7z"/>
	<path fill="#2D55BC" d="M170.5,178.6c6.1,1.8,10.1,7.2,14.3,11.5c0.4,0.4,1.1-0.1,0.8-0.6c-3.5-5.7-9.5-8-15-11.2
		C170.4,178.2,170.3,178.5,170.5,178.6L170.5,178.6z"/>
	<path fill="#2D55BC" d="M177.8,178.1c1.8,1.2,3.4,2.6,4.9,4.2c1.4,1.4,2.4,3.1,3.8,4.6c0.4,0.4,1-0.1,0.8-0.6
		c-1.9-3.5-6-6.3-9.4-8.3C177.8,177.9,177.7,178,177.8,178.1L177.8,178.1z"/>
	<path fill="#2D55BC" d="M172.9,170.7c4.9,1.9,8.3,4.9,12.1,8.3c0.4,0.4,1.1-0.1,0.8-0.6c-3-4-8-6.8-12.7-8.4
		C172.6,169.9,172.5,170.5,172.9,170.7L172.9,170.7z"/>
	<path fill="#2D55BC" d="M171.9,165c4.6,2.8,8.9,6,12.9,9.7c0.5,0.4,1.2-0.3,0.7-0.7c-4-3.7-8.4-7-13.1-9.8
		C171.9,163.8,171.4,164.7,171.9,165L171.9,165z"/>
	<path fill="#2D55BC" d="M172.4,159.5c4.1,3.2,8.2,6.3,12.3,9.5c0.2,0.2,0.5-0.2,0.3-0.4c-4.1-3.2-8.2-6.4-12.2-9.6
		C172.5,158.7,172.1,159.2,172.4,159.5L172.4,159.5z"/>
	<path fill="#2D55BC" d="M172.5,154.5c4.1,2.7,7.8,5.9,11.2,9.5c0.4,0.4,1-0.2,0.6-0.6c-3.5-3.5-7.4-6.5-11.7-9
		C172.5,154.3,172.4,154.5,172.5,154.5L172.5,154.5z"/>
	<path fill="#2D55BC" d="M172.1,149.6c3.5,2.9,6.9,5.8,10.4,8.7c0.4,0.3,1-0.3,0.6-0.6c-3.6-2.8-7.2-5.6-10.8-8.3
		C172.2,149.3,171.9,149.5,172.1,149.6L172.1,149.6z"/>
	<path fill="#2D55BC" d="M165.1,140.5c3.6,1.2,6.9,2.9,10,5c3.1,2.1,5.4,5.1,8.3,7.5c0.5,0.4,1.2-0.1,0.9-0.7
		c-3.6-6.6-12-10.6-19-12.5C164.8,139.8,164.7,140.4,165.1,140.5L165.1,140.5z"/>
	<path fill="#2D55BC" d="M168.4,136c4.2,2.3,7.5,5.3,11.2,8.2c0.6,0.4,1.3-0.3,0.8-0.8c-3.1-3.4-7.7-5.9-11.8-7.8
		C168.3,135.4,168.1,135.8,168.4,136L168.4,136z"/>
	<path fill="#2D55BC" d="M165.6,130.2c4.3,1.5,8.3,3.7,12,6.4c0.6,0.4,1.2-0.6,0.6-1c-3.9-2.5-8-4.4-12.5-5.7
		C165.5,129.9,165.4,130.2,165.6,130.2L165.6,130.2z"/>
	<path fill="#2D55BC" d="M164,125.8c5.7,0.8,10,3.3,14.5,6.8c0.4,0.3,1-0.2,0.6-0.6c-3.8-4-9.6-6.1-15-6.6
		C163.8,125.5,163.8,125.8,164,125.8L164,125.8z"/>
	<path fill="#2D55BC" d="M157,118.4c3.1,0.4,6.1,1.2,9.1,2.3c3.8,1.4,6.9,3.8,10.3,5.8c0.7,0.4,1.5-0.6,0.9-1.2
		c-5.1-4.9-13.3-7-20.2-7.5C156.8,117.7,156.7,118.3,157,118.4L157,118.4z"/>
	<path fill="#2D55BC" d="M154.7,112.2c6.6-0.6,11.5,1.5,17.3,4.4c0.6,0.3,1.2-0.5,0.7-0.9c-4.8-4.1-12.1-4.9-18.1-4.1
		C154.3,111.6,154.3,112.2,154.7,112.2L154.7,112.2z"/>
	<path fill="#2D55BC" d="M152.3,105.7c5.9,0.2,11.3,2,16.2,5.4c0.5,0.4,1-0.5,0.5-0.9c-5-3.4-10.6-5.1-16.7-5.2
		C151.8,105.1,151.8,105.7,152.3,105.7L152.3,105.7z"/>
	<path fill="#2D55BC" d="M200.3,210.5c1.1,0.6,2,1.3,2.8,2.2c0.8,0.8,1.1,1.9,2,2.6c0.5,0.4,1.1,0,1-0.6c-0.3-2.3-3.4-4.2-5.2-5.1
		C200.3,209.4,199.8,210.2,200.3,210.5L200.3,210.5z"/>
	<path fill="#2D55BC" d="M199.5,205.1c2.5,2.4,5,4.7,7.5,7.1c0.6,0.6,1.6-0.4,0.9-0.9c-2.6-2.2-5.3-4.5-7.9-6.7
		C199.7,204.2,199.1,204.7,199.5,205.1L199.5,205.1z"/>
	<path fill="#2D55BC" d="M196.3,198.7c2,0.9,3.8,2,5.6,3.3c1.9,1.4,3.4,3.2,5.2,4.8c0.6,0.5,1.7-0.2,1.2-0.9
		c-2.7-3.7-7.4-6.3-11.6-8C196.2,197.8,195.9,198.5,196.3,198.7L196.3,198.7z"/>
	<path fill="#2D55BC" d="M196.1,190.7c2.5,1.3,4.8,2.8,6.9,4.7c2.1,1.9,3.7,4.2,5.8,6.2c0.6,0.5,1.4-0.1,1-0.8
		c-2.5-5-8.6-8.4-13.7-10.2C196,190.5,196,190.6,196.1,190.7L196.1,190.7z"/>
	<path fill="#2D55BC" d="M203.6,192.4c2,2.2,4,4.4,6,6.6c0.4,0.4,1-0.2,0.6-0.6c-2.1-2.1-4.1-4.3-6.2-6.4
		C203.8,191.7,203.3,192.1,203.6,192.4L203.6,192.4z"/>
	<path fill="#2D55BC" d="M197.7,183.6c2.8,1,5.3,2.4,7.6,4.2c2.2,1.7,3.5,4.2,5.6,5.9c0.4,0.3,1.2,0,1-0.6c-0.8-2.4-3.2-4.4-5.2-5.8
		c-2.7-2-5.6-3.5-8.8-4.4C197.4,182.9,197.3,183.5,197.7,183.6L197.7,183.6z"/>
	<path fill="#2D55BC" d="M197.3,177.8c3.2,1.1,6,2.7,8.6,4.8c2.1,1.8,3.5,4.8,5.8,6.1c0.5,0.3,1.1-0.2,1-0.7c-0.4-2.7-3.8-4.9-6-6.4
		c-2.8-2-6-3.3-9.3-4.1C197.2,177.4,197.1,177.7,197.3,177.8L197.3,177.8z"/>
	<path fill="#2D55BC" d="M199.8,174.1c1.9,1.4,3.8,2.9,5.7,4.3c1.8,1.4,3.7,3.1,5.7,4.2c0.8,0.4,1.7-0.6,1-1.3
		c-1.5-1.5-3.4-2.6-5.1-3.9c-2.2-1.5-4.3-3.1-6.5-4.6C199.8,172.3,199.1,173.6,199.8,174.1L199.8,174.1z"/>
	<path fill="#2D55BC" d="M198,169.4c2.5,1,4.9,2.2,7.2,3.7c2.1,1.4,3.9,3.5,6.2,4.4c0.8,0.3,1.4-0.7,1-1.3c-1.2-2.2-4.1-3.6-6.2-4.9
		c-2.5-1.4-5.2-2.5-7.9-3.4C197.4,167.7,197.1,169.1,198,169.4L198,169.4z"/>
	<path fill="#2D55BC" d="M194.7,160.9c5.6,2.6,10.5,6.1,15.8,8.9c0.6,0.3,1.4-0.5,0.8-1c-4.7-3.9-10.7-6.4-16.4-8.5
		C194.6,160.1,194.4,160.7,194.7,160.9L194.7,160.9z"/>
	<path fill="#2D55BC" d="M195.7,155.1c6.6,1.1,9.9,7,14.3,11.1c0.4,0.4,1.1,0,1-0.6c-2-6.6-9.6-8.7-15.2-10.8
		C195.6,154.7,195.5,155,195.7,155.1L195.7,155.1z"/>
	<path fill="#2D55BC" d="M194,148.2c5.8,1.1,9.4,6.2,13.7,9.8c0.4,0.4,1.1-0.1,0.8-0.6c-2.9-5.4-9.2-7.1-14.3-9.4
		C193.9,147.8,193.8,148.1,194,148.2L194,148.2z"/>
	<path fill="#2D55BC" d="M191.9,143.4c3.5,2.4,7,4.9,10.5,7.3c0.6,0.4,1.2-0.6,0.6-1c-3.5-2.4-7.1-4.8-10.6-7.2
		C191.8,142.2,191.3,143.1,191.9,143.4L191.9,143.4z"/>
	<path fill="#2D55BC" d="M103.6,208c0-0.3,0-0.5,0-0.8c0-0.1-0.2-0.1-0.2,0c0,0.3,0,0.5,0,0.8C103.4,208.2,103.6,208.2,103.6,208
		L103.6,208z"/>
	<path fill="#2D55BC" d="M103.8,207.2c0-0.4,0-0.7,0.1-1.1c0-0.5-0.7-0.5-0.8,0c-0.3,4.4,0.3,9.6,2.9,13.4c0.6,0.8,1.9,0.3,1.7-0.7
		c-0.5-2-1.5-3.9-2.1-5.9c-0.7-2.3-1.3-4.6-1.7-6.9c-0.3,0.1-0.5,0.1-0.8,0.2c0.1,0.4,0.1,0.7,0.2,1.1
		C103.3,207.6,103.8,207.5,103.8,207.2L103.8,207.2z"/>
	<path fill="#2D55BC" d="M107.3,208.5c-0.2,5,0.3,12.1,3.9,15.9c0.4,0.4,1.1,0,1-0.6c-0.6-2.4-2-4.6-2.8-7c-0.9-2.7-1.3-5.5-1.4-8.3
		C107.9,208,107.3,208,107.3,208.5L107.3,208.5z"/>
	<path fill="#2D55BC" d="M110.7,211.4c1.5,5.5,3.2,11.7,6.6,16.3c0.3,0.4,1.1,0.2,0.9-0.4c-1.9-5.5-4.7-10.6-6.4-16.3
		C111.6,210.4,110.5,210.7,110.7,211.4L110.7,211.4z"/>
	<path fill="#2D55BC" d="M117.7,210.9c0.1,7.1,1.9,16.9,7.7,21.6c0.4,0.4,1-0.1,0.8-0.6c-1.4-2.9-3.4-5.3-4.8-8.2
		c-2-4-3-8.4-3.3-12.8C118,210.7,117.7,210.7,117.7,210.9L117.7,210.9z"/>
	<path fill="#2D55BC" d="M125.1,224c1.2,3.9,2.9,8.2,5.6,11.3c0.4,0.5,1.2-0.1,0.9-0.7c-2.1-3.6-4.4-6.8-5.9-10.8
		C125.6,223.4,125,223.6,125.1,224L125.1,224z"/>
	<path fill="#2D55BC" d="M128.5,225.9c0.3,4.5,1.4,8.8,3.4,12.9c0.3,0.7,1.4,0.1,1-0.6c-2.2-3.8-3.6-7.9-4.1-12.3
		C128.8,225.7,128.4,225.7,128.5,225.9L128.5,225.9z"/>
	<path fill="#2D55BC" d="M131.6,229.3c1.1,2.6,2.3,5.2,3.4,7.9c0.2,0.5,0.9,0.1,0.7-0.4c-1.2-2.6-2.5-5.1-3.7-7.7
		C131.9,228.8,131.5,229.1,131.6,229.3L131.6,229.3z"/>
	<path fill="#2D55BC" d="M133.2,224.4c1.1,3.9,2.8,9,5.9,11.8c0.4,0.4,1-0.1,0.8-0.6c-0.8-1.7-2.1-3.2-3-4.8
		c-1.2-2.1-2.1-4.3-2.8-6.6C133.9,223.7,133.1,223.9,133.2,224.4L133.2,224.4z"/>
	<path fill="#2D55BC" d="M136.1,221.1c0.8,2.9,1.8,5.7,3.1,8.4c1.1,2.2,2.3,5.4,4.6,6.6c0.4,0.2,0.8-0.1,0.7-0.6
		c-0.5-2.2-2.4-4-3.6-5.9c-1.6-2.7-2.9-5.7-3.9-8.7C136.9,220.3,135.9,220.5,136.1,221.1L136.1,221.1z"/>
	<path fill="#2D55BC" d="M142.1,226c0.7,1.9,1.6,3.7,2.7,5.3c0.9,1.3,2.2,3.3,3.8,3.6c0.5,0.1,0.9-0.4,0.7-0.8
		c-0.5-1.2-2.1-2.2-3-3.2c-1.3-1.5-2.3-3.3-3.1-5.2C142.9,225,141.8,225.3,142.1,226L142.1,226z"/>
	<path fill="#2D55BC" d="M147,227.8c1.2,2.7,2.9,5.2,5.1,7.2c0.8,0.7,2-0.5,1.2-1.2c-2.2-1.8-4.1-4-5.4-6.6
		C147.5,226.7,146.7,227.2,147,227.8L147,227.8z"/>
	<path fill="#2D55BC" d="M150.5,225.4c1.6,3.6,3.7,7,6.1,10.1c0.5,0.6,1.5,0.3,1.8-0.2c0.2-0.4,0.4-0.7,0.6-1.2c0.3-0.7-0.3-1.3-1-1
		c-0.4,0.2-0.8,0.4-1.2,0.6c0.5,0.1,0.9,0.1,1.4,0.2c-2.6-2.7-4.9-5.7-6.7-9C151.2,224.2,150.2,224.7,150.5,225.4L150.5,225.4z"/>
	<path fill="#2D55BC" d="M156.7,225.4c1.4,3.1,4,7.7,7.4,8.9c1,0.4,1.5-1,1-1.7c-1.1-1.4-2.7-2.3-3.9-3.5c-1.3-1.3-2.5-2.8-3.5-4.4
		C157.3,224.2,156.4,224.7,156.7,225.4L156.7,225.4z"/>
	<path fill="#2D55BC" d="M159.3,219.2c1.8,4.7,5.4,11,10.2,13.2c1.2,0.5,2.3-0.8,1.4-1.8c-1.7-1.9-3.9-3.3-5.7-5.2
		c-1.8-2-3.2-4.4-4.3-6.9C160.5,217.5,158.9,218.2,159.3,219.2L159.3,219.2z"/>
	<path fill="#2D55BC" d="M167.9,221.4c1.1,1.8,2.3,3.4,3.6,4.9c1.1,1.2,2.9,3.6,4.7,3.6c0.5,0,0.9-0.5,0.7-0.9
		c-0.5-1.5-2.6-2.5-3.8-3.6c-1.5-1.4-2.9-3-4-4.7C168.6,219.9,167.4,220.6,167.9,221.4L167.9,221.4z"/>
	<path fill="#2D55BC" d="M175.1,221.8c2,1.8,4,3.6,6,5.3c0.5,0.4,1.2-0.3,0.7-0.7c-2.1-1.7-4.1-3.5-6.2-5.2
		C175.2,220.9,174.7,221.5,175.1,221.8L175.1,221.8z"/>
	<path fill="#2D55BC" d="M180.6,219.7c1.2,1.9,2.6,3.5,4.3,5c1.2,1,3.3,2.9,5,2.5c0.5-0.1,0.7-0.7,0.4-1.1c-0.7-1.3-2.7-1.7-3.9-2.5
		c-1.8-1.2-3.4-2.8-4.7-4.5C181.2,218.4,180.1,219,180.6,219.7L180.6,219.7z"/>
	<path fill="#2D55BC" d="M185.9,218.9c1,1.4,2.2,2.7,3.6,3.7c1.2,0.9,2.8,2.3,4.4,2.1c0.6-0.1,0.6-0.9,0.3-1.2
		c-0.8-1-2.4-1.3-3.5-1.9c-1.5-0.9-2.7-2-3.9-3.3C186.4,217.7,185.5,218.4,185.9,218.9L185.9,218.9z"/>
	<path fill="#2D55BC" d="M82.4,169.9c-0.5,5.5,0,11.3,2.8,16.1c0.3,0.6,1.3,0.2,1.1-0.4c-2-5.2-3.5-10.1-3.4-15.7
		C82.9,169.5,82.4,169.5,82.4,169.9L82.4,169.9z"/>
	<path fill="#2D55BC" d="M85.8,175.9c0.7,4.9,0.6,10.8,4.6,14.4c0.3,0.3,1,0,0.8-0.5c-1.9-4.6-5.4-8.6-5.1-14
		C86.1,175.6,85.8,175.6,85.8,175.9L85.8,175.9z"/>
	<path fill="#2D55BC" d="M90.7,182.5c1.2,4.3,2.9,9.8,6,13.1c0.4,0.5,1.3,0,1.1-0.6c-0.8-2-2-3.7-3-5.6c-1.2-2.3-2.1-4.7-2.8-7.2
		C91.8,181.3,90.5,181.7,90.7,182.5L90.7,182.5z"/>
	<path fill="#2D55BC" d="M96.2,185.5c0.5,2.5,1.3,4.8,2.4,7c0.9,1.8,2.2,4.5,4.1,5.4c0.5,0.2,1.1-0.2,1-0.7c-0.5-1.8-2.1-3.3-3-4.9
		c-1.3-2.3-2.1-4.7-2.7-7.3C97.7,183.9,96,184.4,96.2,185.5L96.2,185.5z"/>
	<path fill="#2D55BC" d="M101.3,181.1c1,6.4,3.6,17.6,9.8,21c0.7,0.4,1.6-0.2,1.3-1c-1-3-3.5-5.4-5.2-8.1c-2.3-3.7-3.9-7.9-5-12.1
		C102.1,180.2,101.2,180.4,101.3,181.1L101.3,181.1z"/>
	<path fill="#2D55BC" d="M110.2,191.9c1,1.8,1.9,3.6,2.9,5.4c0.9,1.6,1.6,3.7,3.1,4.8c0.4,0.3,1.2-0.1,1.1-0.6
		c-0.2-1.7-1.4-3-2.3-4.4c-1.2-1.9-2.5-3.8-3.7-5.8C110.9,190.5,109.8,191.1,110.2,191.9L110.2,191.9z"/>
	<path fill="#2D55BC" d="M116.3,195.6c0.9,1.2,1.7,2.5,2.6,3.7c0.7,1,1.3,2.2,2.4,3c0.6,0.4,1.5-0.3,1.2-0.9c-0.5-1.2-1.5-2.1-2.3-3
		c-1-1.1-2-2.3-3-3.4C116.8,194.4,115.9,195.1,116.3,195.6L116.3,195.6z"/>
	<path fill="#2D55BC" d="M116.5,185.9c1.9,3.8,3.9,7.5,6,11.1c1.7,2.8,3.2,6.4,6,8.2c0.5,0.3,1.1-0.2,1-0.7
		c-0.8-3.1-3.4-5.8-5.2-8.5c-2.3-3.5-4.5-7.1-6.5-10.8C117.3,184.3,116,185.1,116.5,185.9L116.5,185.9z"/>
	<path fill="#2D55BC" d="M126.5,188.3c1,3.4,2.6,6.7,4.8,9.5c2,2.5,5.1,6.3,8.7,6.5c0.4,0,0.8-0.5,0.5-0.9c-1.7-2.3-4.7-3.4-6.8-5.3
		c-3-2.7-5.2-6.2-6.7-9.9C126.8,187.9,126.4,188,126.5,188.3L126.5,188.3z"/>
	<path fill="#2D55BC" d="M135.5,195.5c2.5,3.1,5.4,5.8,8.7,8.1c0.7,0.5,1.4-0.7,0.7-1.1c-3.4-2-6.3-4.5-8.9-7.4
		C135.7,194.7,135.3,195.2,135.5,195.5L135.5,195.5z"/>
	<path fill="#2D55BC" d="M140.8,196.7c1.4,1.8,2.9,3.4,4.7,4.8c1.6,1.2,4,2.8,6.1,2.7c0.5,0,0.8-0.6,0.4-1c-1.5-1.2-3.5-1.7-5.1-2.8
		c-1.9-1.2-3.6-2.8-4.9-4.6C141.5,195.2,140.3,196.1,140.8,196.7L140.8,196.7z"/>
	<path fill="#2D55BC" d="M149.3,195.4c1.7,2.3,3.7,4.4,5.8,6.3c1.8,1.5,4.2,3.9,6.6,3.9c1,0,1.3-1.1,0.8-1.8
		c-1.3-1.7-4.2-2.6-6.1-3.8c-2.3-1.5-4.3-3.4-6.1-5.4C149.8,194,148.8,194.8,149.3,195.4L149.3,195.4z"/>
	<path fill="#2D55BC" d="M158.9,199.8c1.7,1.3,3.5,3.2,5.5,4c1,0.4,1.4-0.9,0.9-1.5c-1.3-1.6-3.6-2.8-5.3-3.9
		C159.2,197.7,158.1,199.1,158.9,199.8L158.9,199.8z"/>
	<path fill="#2D55BC" d="M124.9,148.6c1.7,1.2,3.2,2.6,4.6,4.2c1.1,1.3,1.9,3.4,3.5,3.9c0.6,0.2,1.2-0.3,1.3-1
		c0.1-1.9-2-3.3-3.3-4.4c-1.7-1.4-3.6-2.6-5.6-3.6C124.9,147.5,124.4,148.3,124.9,148.6L124.9,148.6z"/>
	<path fill="#2D55BC" d="M126.2,145.9c1.5,1.2,3,2.4,4.4,3.6c1.3,1,2.9,2.9,4.5,3.2c0.6,0.1,1.2-0.4,1-1c-0.5-1.5-2.2-2.4-3.4-3.4
		c-1.6-1.4-3.2-2.7-4.9-4.1C126.7,143.1,124.9,144.9,126.2,145.9L126.2,145.9z"/>
	<path fill="#2D55BC" d="M127.4,141.2c1.8,1.3,3.5,2.5,5.3,3.8c1.5,1.1,2.9,2.5,4.7,2.7c0.7,0.1,1.1-0.8,0.8-1.4
		c-0.9-1.6-2.9-2.4-4.4-3.3c-1.8-1.2-3.6-2.3-5.4-3.5C127.3,138.8,126.4,140.5,127.4,141.2L127.4,141.2z"/>
	<path fill="#2D55BC" d="M121.6,127.7c3,1.5,5.7,3.3,8.3,5.4c2.4,1.9,4.3,4.6,6.8,6.4c0.8,0.5,1.6-0.5,1.2-1.2
		c-1.3-2.5-4-4.3-6.2-5.9c-3-2.3-6.2-4.1-9.6-5.6C121.5,126.4,120.9,127.3,121.6,127.7L121.6,127.7z"/>
	<path fill="#2D55BC" d="M130.5,126.1c1.8,1.2,3.4,2.6,4.8,4.1c1.5,1.6,2.5,3.6,4.1,5.2c0.7,0.7,2,0,1.7-1c-1.4-4.1-6.2-7.5-9.9-9.5
		C130.4,124.5,129.8,125.6,130.5,126.1L130.5,126.1z"/>
	<path fill="#2D55BC" d="M124.1,117c4.8,2.3,8.7,5.4,12.9,8.6c0.7,0.5,1.5-0.6,0.9-1.2c-3.6-3.7-8.6-6.3-13.3-8.2
		C124,115.9,123.5,116.7,124.1,117L124.1,117z"/>
	<path fill="#2D55BC" d="M123.4,110.2c5.4,3,10.5,6.5,15.3,10.3c0.6,0.4,1.2-0.3,0.6-0.8c-5-3.7-10.2-7-15.7-9.8
		C123.4,109.8,123.3,110.1,123.4,110.2L123.4,110.2z"/>
	<path fill="#2D55BC" d="M118,102.8c3.2,1.2,6.2,2.6,9.2,4.2c3,1.6,5.6,3.9,8.7,5.4c0.6,0.3,1.2-0.4,0.7-0.9
		c-4.5-4.7-12.4-7.3-18.5-9.1C117.9,102.2,117.7,102.7,118,102.8L118,102.8z"/>
	<path fill="#2D55BC" d="M120.1,97.4c2.6,1.5,5,3.3,7.4,5.2c2.1,1.8,3.8,4.4,6.1,5.8c0.7,0.5,1.5-0.4,1.1-1.1
		c-1.2-2.2-3.7-3.8-5.6-5.3c-2.7-2-5.6-3.7-8.7-5.2C120.1,96.6,119.7,97.2,120.1,97.4L120.1,97.4z"/>
	<path fill="#2D55BC" d="M117.1,90.3c5.2,3.3,10,6.9,14.5,11c0.8,0.7,2-0.5,1.2-1.2c-4.8-4-9.9-7.5-15.3-10.6
		C117.1,89.4,116.7,90.1,117.1,90.3L117.1,90.3z"/>
	<path fill="#2D55BC" d="M66.4,126.8c-0.5,7.7,1.1,15,5.5,21.4c0.3,0.4,1,0,0.7-0.4c-3.8-6.5-6.1-13.4-6-21
		C66.6,126.7,66.4,126.7,66.4,126.8L66.4,126.8z"/>
	<path fill="#2D55BC" d="M69.4,135.8c1.5,4.6,3.1,9.3,4.6,13.9c0.2,0.5,1,0.3,0.8-0.2c-1.7-4.6-3.4-9.2-5.1-13.8
		C69.7,135.5,69.4,135.6,69.4,135.8L69.4,135.8z"/>
	<path fill="#2D55BC" d="M74.9,140.8c1.1,5.4,3.1,12,6.9,16.1c0.5,0.6,1.4-0.2,1-0.8c-1.1-2.3-2.6-4.3-3.8-6.6
		c-1.4-2.9-2.4-5.9-3.1-9.1C75.8,139.7,74.7,140,74.9,140.8L74.9,140.8z"/>
	<path fill="#2D55BC" d="M79.7,134.4c0.6,7.8,2.7,19.2,8.9,24.6c0.5,0.4,1.6,0,1.2-0.7c-1.5-3.5-4.1-6.6-5.8-10
		c-2.2-4.3-3.4-9.1-4.2-13.8C79.9,134.3,79.7,134.3,79.7,134.4L79.7,134.4z"/>
	<path fill="#2D55BC" d="M87.5,149.4c1,2.3,2.1,4.6,3.4,6.7c1.2,2,2.8,4.8,4.8,6c0.7,0.4,1.3-0.4,1-1c-1-2.1-3.1-3.9-4.4-5.9
		c-1.4-2-2.6-4.2-3.6-6.4C88.4,148.3,87.2,148.7,87.5,149.4L87.5,149.4z"/>
	<path fill="#2D55BC" d="M92.5,150c2,3.7,4.1,7.4,6.1,11.1c0.8,1.5,2.5,3.5,4.2,2.3c0.4-0.3,0.5-0.9,0-1.1c-2.5-1.2-3.4-3.5-4.7-5.8
		c-1.4-2.4-2.8-4.9-4.2-7.3C93.4,148.2,91.9,149.1,92.5,150L92.5,150z"/>
	<path fill="#2D55BC" d="M94.9,139.9c3.3,8.6,7.1,18.8,13.5,25.6c0.9,0.9,2.2-0.3,1.7-1.3c-2.1-4.2-5.1-8-7.6-12.1
		c-2.4-4.1-4.6-8.3-6.5-12.6C95.7,138.9,94.7,139.3,94.9,139.9L94.9,139.9z"/>
	<path fill="#2D55BC" d="M106.4,153.7c1.6,3.2,3.5,6.2,5.5,9.1c1.6,2.3,3.5,5.6,6.1,6.7c0.7,0.3,2-0.2,1.6-1.2
		c-1-2.4-3.4-4.2-5.1-6.2c-2.5-2.9-4.7-6-6.7-9.3C107.2,152,105.9,152.8,106.4,153.7L106.4,153.7z"/>
	<path fill="#2D55BC" d="M116.1,158.8c1.4,1.9,2.8,3.8,4.2,5.7c1.1,1.4,2.1,3.9,4,4.2c0.7,0.1,1.3-0.3,1.4-1c0.1-1.9-2-3.5-3.2-4.9
		c-1.6-1.8-3.1-3.6-4.7-5.4C117,156.6,115.4,157.8,116.1,158.8L116.1,158.8z"/>
	<path fill="#2D55BC" d="M62.5,86.4c-1,7-0.4,14.3,3.4,20.4c0.4,0.6,1.4,0.2,1.2-0.5c-2-6.6-3.9-12.9-4.3-19.9
		C62.8,86.3,62.5,86.2,62.5,86.4L62.5,86.4z"/>
	<path fill="#2D55BC" d="M65.9,89.4c-0.7,6.8,0,15.3,4.8,20.6c0.4,0.4,1.2,0,1-0.6c-2.4-6.9-5.4-12.4-5.5-20
		C66.2,89.2,65.9,89.2,65.9,89.4L65.9,89.4z"/>
	<path fill="#2D55BC" d="M69.8,97.7c0.8,2.7,1.8,5.3,2.9,7.9c1,2.4,2.3,6,4.7,7.2c0.4,0.2,1.1,0,1-0.6c-0.3-2.2-2-3.9-3.2-5.7
		c-1.8-2.9-3.2-6-4.5-9.1C70.5,96.8,69.6,97.1,69.8,97.7L69.8,97.7z"/>
	<path fill="#2D55BC" d="M75.7,97.1c0.7,3.1,1.6,6.1,2.9,9c1.1,2.6,2.4,5.7,4.9,7.1c0.6,0.3,1.3-0.2,1.1-0.8
		c-0.7-2.4-2.6-4.2-3.9-6.3c-1.9-2.9-3.2-6-4.4-9.2C76.2,96.5,75.6,96.7,75.7,97.1L75.7,97.1z"/>
	<path fill="#2D55BC" d="M83.3,104c1.3,2.3,2.7,4.5,4.1,6.7c1.1,1.6,2.2,3.9,4.2,4.6c0.7,0.3,1.2-0.5,1.1-1.1
		c-0.3-1.9-2.3-3.5-3.4-4.9c-1.6-2-3-4.1-4.4-6.2C84.2,102.1,82.7,102.9,83.3,104L83.3,104z"/>
	<path fill="#2D55BC" d="M82.2,79.4c1.3,1.7,2.6,3.3,3.9,5c0.4,0.5,1.1-0.2,0.7-0.7c-1.4-1.6-2.8-3.2-4.2-4.8
		C82.4,78.6,81.9,79,82.2,79.4L82.2,79.4z"/>
	<path fill="#2D55BC" d="M82.7,75c1.8,2.3,3.5,4.6,5.3,6.9c0.4,0.6,1.2,0,0.8-0.6c-1.8-2.2-3.7-4.4-5.5-6.7
		C82.9,74.3,82.4,74.7,82.7,75L82.7,75z"/>
	<path fill="#2D55BC" d="M79.7,66.2c1.3,2,2.6,3.9,3.9,5.9c0.3,0.5,1.2,0,0.9-0.5c-1.2-2-2.5-4-3.7-6C80.3,65,79.3,65.5,79.7,66.2
		L79.7,66.2z"/>
	<path fill="#2D55BC" d="M166.8,119.3c4.6,8,6.4,16.4,9.4,25c0.2,0.7,1.3,0.6,1.3-0.2c-0.2-9.1-4.7-18-9.5-25.5
		C167.5,117.9,166.4,118.6,166.8,119.3L166.8,119.3z"/>
	<path fill="#2D55BC" d="M177.3,158c0.8,6.8,1,13.7,1.6,20.6c0.1,0.6,1,0.6,1,0c0.2-6.9-0.9-13.8-2.3-20.6
		C177.5,157.7,177.2,157.8,177.3,158L177.3,158z"/>
	<path fill="#2D55BC" d="M139.7,103c1.6,5.5,1.8,11.1,2.9,16.6c0.1,0.5,0.8,0.3,0.8-0.1c0.4-5.5-1.5-11.4-3.4-16.6
		C140,102.7,139.7,102.8,139.7,103L139.7,103z"/>
	<path fill="#2D55BC" d="M143.8,136.3c-0.8,3.9-2.1,8.2-2.1,12.2c0,0.7,1,0.8,1.1,0.2c1.1-3.9,0.9-8.3,1.2-12.3
		C144,136.2,143.8,136.2,143.8,136.3L143.8,136.3z"/>
	<path fill="#2D55BC" d="M200.7,150.9c2.8,8.1,3.8,16.4,4.6,24.9c0.1,0.6,0.9,0.6,1,0c0.7-8.9-1.6-17.1-5.4-25
		C200.8,150.8,200.7,150.8,200.7,150.9L200.7,150.9z"/>
	<path fill="#2D55BC" d="M121.6,94.6c3.4,7.1,3.5,15.5,3.7,23.2c0,0.7,1.2,0.9,1.3,0.2c1.6-8.6-1.2-15.9-4.7-23.6
		C121.8,94.3,121.5,94.4,121.6,94.6L121.6,94.6z"/>
	<path fill="#2D55BC" d="M93.4,72.9c0.7,6.2,1.1,12.7,1,18.9c0,1,1.4,1,1.5,0c0.3-6.6-0.3-12.6-2-19C93.9,72.6,93.4,72.7,93.4,72.9
		L93.4,72.9z"/>
	<path fill="#2D55BC" d="M98.7,87c-0.1,2.4-0.1,4.9-0.2,7.3c0,0.2,0.3,0.2,0.3,0c0.1-2.4,0.2-4.9,0.3-7.3
		C99.2,86.7,98.7,86.7,98.7,87L98.7,87z"/>
	<path fill="#2D55BC" d="M76.7,60.5c0.2,2.5,0.4,5.1,0.6,7.6c0.1,0.8,1.3,0.7,1.1-0.2c-0.4-2.5-0.7-5-1.1-7.5
		C77.2,60,76.6,60.1,76.7,60.5L76.7,60.5z"/>
	<path fill="#2D55BC" d="M64,97c2,2.1,4.2,4,6.6,5.8c2.3,1.7,5.1,3.7,8,4c0.6,0.1,1-0.9,0.5-1.3c-2-1.7-4.6-2.4-6.9-3.6
		c-2.8-1.5-5.3-3.3-7.7-5.4C64.1,96.3,63.7,96.7,64,97L64,97z"/>
	<path fill="#2D55BC" d="M64.9,89.8c2.7,3.4,5.7,6.4,9,9.1c0.5,0.4,1.2-0.3,0.7-0.7c-3.3-2.8-6.2-5.9-8.9-9.3
		C65.3,88.4,64.5,89.3,64.9,89.8L64.9,89.8z"/>
	<path fill="#2D55BC" d="M73.9,143.7c7.7,6.9,18.1,15.6,28.7,17.2c0.6,0.1,1-0.7,0.4-1.1c-4.3-2.8-9.5-4.4-14.2-6.7
		c-5.3-2.7-10.2-6-14.8-9.5C73.9,143.5,73.8,143.6,73.9,143.7L73.9,143.7z"/>
	<path fill="#2D55BC" d="M107.6,160.2c2.8,1.7,6.6,3.6,10,3.4c0.6,0,0.7-0.8,0.1-1c-1.5-0.6-3.1-0.8-4.7-1.2c-1.7-0.5-3.4-1.2-5-1.9
		C107.6,159.3,107.2,159.9,107.6,160.2L107.6,160.2z"/>
	<path fill="#2D55BC" d="M91.1,178.7c3.9,7.8,16,13.1,24.3,12.3c0.6-0.1,0.8-1,0.2-1.1c-4.9-1-9.1-1.7-13.7-3.8
		c-4.1-1.9-6.9-5-10.5-7.6C91.2,178.3,91,178.5,91.1,178.7L91.1,178.7z"/>
	<path fill="#2D55BC" d="M124.3,187.6c4.5,2.3,10.5,4.5,15.7,3.7c0.7-0.1,0.4-1.1-0.2-1.1c-2.8-0.4-5.5-0.2-8.3-0.7
		c-2.4-0.4-4.8-1.2-7.1-2.2C124.2,187.2,124.1,187.5,124.3,187.6L124.3,187.6z"/>
	<path fill="#2D55BC" d="M125,221.3c6.5,3.2,13.5,4.7,20.6,3.1c0.5-0.1,0.4-1-0.1-1c-6.9,0.3-13.7-0.1-20.2-2.8
		C124.9,220.6,124.7,221.2,125,221.3L125,221.3z"/>
	<path fill="#2D55BC" d="M143,229.8c11.7,2.2,24.8,1.7,35.2-4.7c0.8-0.5,0.3-2-0.7-1.7c-11.5,4-22,7.1-34.4,5.8
		C142.7,229.1,142.6,229.7,143,229.8L143,229.8z"/>
	<path fill="#2D55BC" d="M166.1,219.5c2.8,0,5.6,0,8.4,0c0.7,0,0.7-1.2,0-1.2c-2.8,0-5.6,0-8.4,0
		C165.3,218.3,165.3,219.5,166.1,219.5L166.1,219.5z"/>
	<path fill="#2D55BC" d="M133.1,88.8c2.9,5,5.2,10.4,7.9,15.6c0.3,0.6,1.3,0.2,1.1-0.4c-1.9-5.6-5.2-10.6-8.7-15.3
		C133.3,88.4,133,88.6,133.1,88.8L133.1,88.8z"/>
	<path fill="#2D55BC" d="M137.4,90.4c4.7,5.5,7.1,13.1,8.9,20c0.2,0.7,1.3,0.4,1.1-0.3c-1.8-7.7-5.6-13.4-9.8-19.9
		C137.6,90.1,137.3,90.3,137.4,90.4L137.4,90.4z"/>
	<path fill="#2D55BC" d="M144.4,93.4c5.4,9.9,7.5,20.2,9.3,31.2c0.1,0.9,1.4,0.6,1.5-0.2c0.4-11.4-4-22-10.2-31.3
		C144.7,92.7,144.2,93,144.4,93.4L144.4,93.4z"/>
	<path fill="#2D55BC" d="M152.5,96.8c3.3,7.2,4.5,14.5,6.2,22.1c0.2,1,1.8,0.8,1.8-0.2c0-7.9-3.4-15.5-7.7-22.1
		C152.6,96.4,152.4,96.6,152.5,96.8L152.5,96.8z"/>
	<path fill="#2D55BC" d="M161,103.1c0.9,3.9,1.9,7.7,2.8,11.6c0.1,0.5,0.9,0.3,0.8-0.2c-0.9-3.9-1.8-7.8-2.6-11.7
		C161.9,102.2,160.9,102.5,161,103.1L161,103.1z"/>
	<path fill="#2D55BC" d="M93,67.9c2.8,5.8,3.9,11.8,5.6,17.9c0.2,0.6,1.2,0.5,1.1-0.2c-0.2-6.3-3.2-12.6-6.3-18
		C93.3,67.4,92.9,67.6,93,67.9L93,67.9z"/>
	<path fill="#2D55BC" d="M99.5,72.8c3.1,7.9,4.4,15.9,6.3,24.1c0.2,0.8,1.5,0.6,1.5-0.2c-0.5-8.3-3.7-16.7-7-24.3
		C100.1,72,99.4,72.4,99.5,72.8L99.5,72.8z"/>
	<path fill="#2D55BC" d="M107.6,75.2c3.7,7.8,4.2,15.4,5.4,23.7c0.2,1,1.9,1,2.1,0c1.2-8.4-2.4-17.1-6.9-24
		C107.9,74.5,107.4,74.9,107.6,75.2L107.6,75.2z"/>
	<path fill="#2D55BC" d="M61.9,108.5c3.1,7.1,8.3,14,15.4,17.3c0.5,0.2,0.9-0.4,0.4-0.7c-6.5-4.6-12-9.5-15.6-16.8
		C62.1,108.1,61.8,108.3,61.9,108.5L61.9,108.5z"/>
	<path fill="#2D55BC" d="M63.3,119.3c3.8,5.3,9.6,11.6,16,13.8c0.4,0.1,0.5-0.4,0.3-0.6c-2.8-2.1-6-3.6-8.7-5.8
		c-2.7-2.2-5.1-4.8-7.3-7.6C63.5,119,63.2,119.1,63.3,119.3L63.3,119.3z"/>
	<path fill="#2D55BC" d="M66,131.5c0.9,0.8,1.8,1.6,2.7,2.4c0.1,0.1,0.4-0.1,0.2-0.2c-0.9-0.8-1.8-1.6-2.7-2.4
		C66.1,131.2,65.9,131.4,66,131.5L66,131.5z"/>
	<path fill="#2D55BC" d="M142.1,170.6c1.9-4.4,3.4-8.8,3.3-13.7c0-0.8-1.3-1-1.5-0.2c-1,4.5-1.8,8.9-3.3,13.2
		C140.3,170.8,141.8,171.4,142.1,170.6L142.1,170.6z"/>
	<path fill="#2D55BC" d="M145.3,173.5c0.4-2,0.7-4,1.1-6c0.1-0.4-0.6-0.6-0.6-0.2c-0.4,2-0.7,4-1.1,6
		C144.6,173.7,145.2,173.9,145.3,173.5L145.3,173.5z"/>
	<path fill="#2D55BC" d="M148.4,178.7c0.6-2.8,1.1-5.6,1.7-8.5c0.1-0.6-0.8-0.9-1-0.3c-0.7,2.8-1.4,5.6-2.1,8.3
		C146.7,179.3,148.2,179.7,148.4,178.7L148.4,178.7z"/>
	<path fill="#2D55BC" d="M154.7,182.1c1.4-5.2,2.4-10.6,2.1-16c0-0.5-0.8-0.5-0.8,0c-0.3,5.4-0.6,10.6-1.7,15.9
		C154.1,182.3,154.6,182.4,154.7,182.1L154.7,182.1z"/>
	<path fill="#2D55BC" d="M160.7,187.7c0.3-2.6,0.5-5.2,0.8-7.9c0.1-0.7-1.1-0.7-1.2,0c-0.3,2.6-0.5,5.2-0.8,7.9
		C159.4,188.5,160.6,188.5,160.7,187.7L160.7,187.7z"/>
	<path fill="#2D55BC" d="M173,197.2c0.2-3.9,1-8.3,0.4-12.1c-0.1-0.8-1.4-0.8-1.6,0c-0.8,3.8-0.2,8.2-0.1,12.1
		C171.7,198.1,173,198.1,173,197.2L173,197.2z"/>
	<path fill="#2D55BC" d="M131.4,179.2c2.1,0.6,4.2,1.3,6.2,1.9c0.1,0,0.1-0.1,0-0.2c-2.1-0.6-4.2-1.3-6.2-1.9
		C131.3,179,131.3,179.1,131.4,179.2L131.4,179.2z"/>
</g>
</svg>
