<?xml version="1.0" encoding="utf-8"?>
<!-- Generator: Adobe Illustrator 18.0.0, SVG Export Plug-In . SVG Version: 6.00 Build 0)  -->
<!DOCTYPE svg PUBLIC "-//W3C//DTD SVG 1.1//EN" "http://www.w3.org/Graphics/SVG/1.1/DTD/svg11.dtd">
<svg version="1.1" id="Capa_1" xmlns="http://www.w3.org/2000/svg" xmlns:xlink="http://www.w3.org/1999/xlink" x="0px" y="0px"
	 viewBox="0 0 300 300" enable-background="new 0 0 300 300" xml:space="preserve">
<g>
	<path fill="#2D55BC" d="M84.1,113.3c14.5-9.3,22.9-21,41.5-23c14.2-1.5,49.7,2.9,57,17.2c1.7,3.3,6.7,0.4,5-2.9
		c-8.4-16.5-36-18.4-52.3-20.3C114.1,82,92.7,92.8,83,112.2C82.7,112.9,83.4,113.8,84.1,113.3L84.1,113.3z"/>
	<path fill="#2D55BC" d="M184.9,107.5c5.1,2.1,8.9,4.8,13.2,8.2c2.3,1.8,10.8,7.8,9.5,11.4c-0.5,1.4,1.3,2.6,2.4,1.9
		c5.7-3.4-2.6-10.3-5.1-12.7c-4.8-4.5-12.7-12.3-19.9-10.3C184.1,106.2,184.2,107.3,184.9,107.5L184.9,107.5z"/>
	<path fill="#2D55BC" d="M209.3,129.8c4.2-0.6,10.3,8.2,12.9,10.8c3,3.1,13.5,13,8.5,18c-1.7,1.6,0.9,4.2,2.6,2.6
		c5.7-5.6-0.6-14.2-4.5-18.9c-3.5-4.2-7.6-8.1-11.5-12c-2.3-2.4-5.3-3.7-8.5-2.7C207.2,128,207.8,130,209.3,129.8L209.3,129.8z"/>
	<path fill="#2D55BC" d="M230.7,159.9c7,7.4,11.8,13.3,15.2,23.2c3.3,9.8,5.5,20.1,7.1,30.4c0.7-0.9,1.3-1.7,2-2.6
		c-11.7,0.4-24.6,1.6-35.6-3.3c-1.7-0.8-3.6,1.3-2.1,2.7c8.9,8.3,26.6,5.2,37.7,4.7c1.4-0.1,2.2-1.3,2-2.6
		c-2.3-13.6-6.8-51.4-26.2-52.7C230.7,159.6,230.6,159.8,230.7,159.9L230.7,159.9z"/>
	<path fill="#2D55BC" d="M217.2,207.3c-4.7-1.4-9.8-0.6-14.7-1.8c-6.7-1.6-12.2-5.2-16.6-10.5c-2.2-2.6-6,1.2-3.7,3.7
		c4.7,5.3,10.4,8.8,17.1,10.9c5.4,1.6,13.7,2.1,17.9-2.1C217.4,207.5,217.3,207.3,217.2,207.3L217.2,207.3z"/>
	<path fill="#2D55BC" d="M219.6,210.6c-0.9-1.3-2-2.5-3.2-3.5c-0.5,0.6-0.9,1.2-1.4,1.8c2.1,1,4.2,2,6.3,2.9
		c0.4-0.9,0.7-1.7,1.1-2.6c-2.1-0.4-3.8-1.3-5.3-2.7c-0.8,0.8-1.6,1.6-2.4,2.4c1,0.8,1.7,1.3,3,1.6c1.1,0.3,1.9-0.9,1.4-1.8
		c-0.6-1.1-1.3-1.7-2.3-2.5c-1.6-1.1-3.5,1.4-2,2.6c2.2,1.8,4.5,2.8,7.3,3.1c1.7,0.2,1.8-2.3,0.4-2.8c-2.2-0.8-4.3-1.6-6.5-2.5
		c-1.4-0.5-2,1.7-0.6,2.2c1.4,0.5,2.7,1.1,4,1.9C219.5,211.1,219.7,210.8,219.6,210.6L219.6,210.6z"/>
	<path fill="#2D55BC" d="M181.9,195c-11.8,8.1-23.3-2.1-34.1-6c-1.7-0.6-3.5,1.6-2.4,3.2c7.2,10.5,29.2,15.4,38.5,5.3
		C184.9,196.2,183.4,193.9,181.9,195L181.9,195z"/>
	<path fill="#2D55BC" d="M146.2,188.8c-40.8-1.3-50.2-37.6-58-70.9c-0.8-3.3-5.7-1.9-5.1,1.4c5.6,28.7,22.4,85.2,63.6,72.9
		C148.6,191.6,148.2,188.9,146.2,188.8L146.2,188.8z"/>
	<path fill="#2D55BC" d="M254.2,211c-7.1-5.2-12.5-12.7-18.7-19c-8-8.1-16.5-15.6-25.2-22.9c-15.5-13.2-30.8-25.8-49.1-35
		c-33.5-17.1-77.5-26.7-115-24.1c-4.2,0.3-4.3,6.9,0,6.6c39.2-2.6,82.2,6.6,117.3,24.1c19.4,9.7,35.8,25.1,52.4,38.9
		c12.3,10.3,23.5,24.9,38.1,31.9C254.2,211.6,254.4,211.2,254.2,211L254.2,211z"/>
	<path fill="#2D55BC" d="M188.3,107.5c-24.7-9.7-62.5-5.2-84.9,8.8c-1.4,0.9-0.5,3.2,1.1,2.7c12.2-3.3,23.7-7.8,36.2-10.1
		c15.9-3,31.6-0.8,47.6-1.2C188.4,107.7,188.4,107.5,188.3,107.5L188.3,107.5z"/>
	<path fill="#2D55BC" d="M147.4,190.7c-5.7-11.1-12.7-20.1-16.6-32.4c-3.9-12-3.4-24.8-7.1-36.7c-0.5-1.6-2.6-1.2-2.8,0.4
		c-2.2,20.7,4.4,59.4,25.6,69.6C147.1,191.9,147.7,191.3,147.4,190.7L147.4,190.7z"/>
	<path fill="#2D55BC" d="M211.9,127.9c-18.4-5.2-38.5-2.1-56.8,2.6c-2.4,0.6-1.4,4.1,1,3.7c18.8-3.2,36.5-7,55.7-5.3
		C212.4,128.9,212.5,128,211.9,127.9L211.9,127.9z"/>
	<path fill="#2D55BC" d="M183.8,195.9c-3.9-8.7-9.5-16.4-13.1-25.3c-4-10-5.7-20.7-6-31.4c-0.1-2.4-3.9-2.4-3.8,0
		c0.6,19.1,6.2,44.8,22.2,57.3C183.4,196.8,184,196.4,183.8,195.9L183.8,195.9z"/>
	<path fill="#2D55BC" d="M232.2,160.7c-11.3-3.1-24.1-4.9-35.6-1.5c-0.9,0.3-0.7,1.6,0.2,1.6c11.9-0.3,23.3-1.4,35.3,0.4
		C232.4,161.2,232.6,160.8,232.2,160.7L232.2,160.7z"/>
	<path fill="#2D55BC" d="M218.3,206.6c-5.6-11.2-3.7-22.5-5.9-34.3c-0.2-1.3-2.3-1.3-2.5,0c-2.3,11.6,0.2,25.5,6.3,35.5
		C217,209.2,219,208,218.3,206.6L218.3,206.6z"/>
	<path fill="#2D55BC" d="M106.3,100.3c-3,1.1-5.8,2.6-8.4,4.5c-2.1,1.5-4.7,3.4-5.6,5.9c-0.2,0.5,0.5,0.9,0.8,0.7
		c2.1-1.4,3.6-3.8,5.6-5.4c2.4-2,5.1-3.5,7.9-4.7C107.2,101,106.8,100.2,106.3,100.3L106.3,100.3z"/>
	<path fill="#2D55BC" d="M103.2,105.7c-2.8,1.9-5.2,4.1-7.2,6.8c-0.3,0.3,0.3,0.7,0.6,0.3c1.9-2.6,4.2-4.9,6.8-6.8
		C103.5,105.9,103.4,105.6,103.2,105.7L103.2,105.7z"/>
	<path fill="#2D55BC" d="M113.9,103.1c-5.5,3.6-10.7,7.7-15.4,12.3c-0.4,0.4,0.2,1,0.6,0.6c4.7-4.5,9.8-8.6,15.2-12.3
		C114.5,103.4,114.2,102.8,113.9,103.1L113.9,103.1z"/>
	<path fill="#2D55BC" d="M130.8,114c-1.6,0.5-3.1,1.1-4.6,1.8c-1.4,0.7-3.2,1.4-4.2,2.6c-0.3,0.3,0,1,0.5,0.8
		c1.3-0.5,2.5-1.6,3.7-2.3c1.5-0.9,3.1-1.7,4.8-2.4C131.2,114.3,131.1,113.9,130.8,114L130.8,114z"/>
	<path fill="#2D55BC" d="M136.3,116c-1.9,0.9-3.8,1.8-5.7,2.6c-1.9,0.9-4,1.6-5.6,2.8c-0.4,0.3-0.2,1.1,0.4,0.9
		c1.8-0.5,3.4-1.5,5-2.3c2.1-1.1,4.3-2.2,6.4-3.3C137.2,116.5,136.7,115.8,136.3,116L136.3,116z"/>
	<path fill="#2D55BC" d="M156.1,117c-7.3,1.6-15.8,3.4-22.3,7.4c-0.5,0.3-0.2,1.2,0.4,1.1c7.5-2.1,14.4-5.7,22-7.7
		C156.8,117.7,156.6,116.9,156.1,117L156.1,117z"/>
	<path fill="#2D55BC" d="M149.4,123.4c-2.5,1.2-5,2.4-7.5,3.5c-0.6,0.3-0.1,1.1,0.5,0.9c2.5-1.2,4.9-2.5,7.4-3.7
		C150.3,123.9,149.9,123.2,149.4,123.4L149.4,123.4z"/>
	<path fill="#2D55BC" d="M151.5,126.1c-0.8,0.3-1.5,0.7-2.3,1c-0.5,0.2-0.1,1.1,0.4,0.9c0.8-0.2,1.6-0.5,2.4-0.7
		C152.9,127.1,152.4,125.7,151.5,126.1L151.5,126.1z"/>
	<path fill="#2D55BC" d="M165.4,139.3c5.5-1.8,11.3-3.5,17.1-4.5c0.6-0.1,0.5-1.2-0.2-1.1c-6.2,0.8-11.6,2.4-17.1,5.3
		C165.1,139.1,165.2,139.4,165.4,139.3L165.4,139.3z"/>
	<path fill="#2D55BC" d="M171.7,141.4c6.7-1.8,13.6-2.9,20.5-4.1c0.6-0.1,0.5-1.2-0.2-1.1c-7.1,0.3-13.8,2-20.6,4.2
		C170.8,140.6,171.1,141.6,171.7,141.4L171.7,141.4z"/>
	<path fill="#2D55BC" d="M198.8,141.2c-7.3,0.1-14.3,1.8-20.9,5.1c-0.5,0.2-0.1,1,0.4,0.7c6.4-3.5,13.2-5.3,20.5-5.6
		C198.9,141.4,198.9,141.2,198.8,141.2L198.8,141.2z"/>
	<path fill="#2D55BC" d="M189.1,145.6c-1.1,0.3-2.2,0.6-3.3,1c-1.1,0.3-2.4,0.5-3.4,1.2c-0.5,0.3-0.3,1.1,0.3,1.1
		c1-0.1,1.9-0.5,2.9-0.9c1.3-0.5,2.5-0.9,3.8-1.4C190,146.3,189.8,145.4,189.1,145.6L189.1,145.6z"/>
	<path fill="#2D55BC" d="M203,149.8c-4.7,0.1-9.8,0.9-13.9,3.2c-0.8,0.4-0.1,1.5,0.7,1.1c4.4-1.9,8.4-3.6,13.2-4.2
		C203.1,149.9,203.1,149.7,203,149.8L203,149.8z"/>
	<path fill="#2D55BC" d="M201.8,153.8c-2.8,0-6.9,0.2-9.1,2.3c-0.6,0.6,0,1.6,0.8,1.4c1.3-0.3,2.5-1.2,3.8-1.7
		c1.4-0.6,3-0.9,4.5-1.1C202.3,154.6,202.3,153.8,201.8,153.8L201.8,153.8z"/>
	<path fill="#2D55BC" d="M168.3,141.7c-0.6,6.4,1.2,13.2,4.7,18.6c0.3,0.5,1.3,0.2,1.1-0.4c-2.5-6-4.2-11.9-5.5-18.2
		C168.6,141.5,168.3,141.5,168.3,141.7L168.3,141.7z"/>
	<path fill="#2D55BC" d="M174.5,145.4c0.2,4.7,1.1,9.2,2.7,13.7c0.2,0.5,1,0.3,0.8-0.2c-1.6-4.4-2.5-8.8-2.8-13.4
		C175.1,145,174.5,145,174.5,145.4L174.5,145.4z"/>
	<path fill="#2D55BC" d="M180.5,150c0.3,5.3,0.8,11.6,3.3,16.3c0.2,0.4,0.8,0.1,0.8-0.3c-1.1-5.4-3.1-10.4-3.6-16
		C181,149.7,180.5,149.6,180.5,150L180.5,150z"/>
	<path fill="#2D55BC" d="M186.8,155.9c0.2,4,0.6,8.4,2.1,12.2c0.2,0.5,0.9,0.3,0.8-0.2c-0.8-4-2-7.8-2.4-12
		C187.3,155.6,186.8,155.6,186.8,155.9L186.8,155.9z"/>
	<path fill="#2D55BC" d="M192.6,161c0.3,2.9,0.4,5.8,1.3,8.5c0.2,0.6,1.2,0.5,1.1-0.2c-0.1-2.9-1.1-5.6-1.9-8.4
		C193.1,160.7,192.6,160.7,192.6,161L192.6,161z"/>
	<path fill="#2D55BC" d="M216.6,162.5c-4.5,0.2-9.5-0.1-13.9,0.9c-0.5,0.1-0.3,0.8,0.1,0.8c4.5,0.3,9.3-0.8,13.8-1.3
		C216.8,162.8,216.8,162.5,216.6,162.5L216.6,162.5z"/>
	<path fill="#2D55BC" d="M218.7,167.3c-4.8-0.2-9.5,0.1-14.2,0.8c-0.6,0.1-0.4,1.1,0.3,1c4.6-0.8,9.2-1.1,13.9-1.1
		C219.1,167.9,219.1,167.3,218.7,167.3L218.7,167.3z"/>
	<path fill="#2D55BC" d="M228.4,173.7c-4.6-0.6-9.2-1.4-13.8-1.6c-0.7,0-0.9,1.2-0.2,1.3c4.6,0.8,9.4,0.9,14,1.3
		C229,174.7,229,173.8,228.4,173.7L228.4,173.7z"/>
	<path fill="#2D55BC" d="M229.5,179.4c-1.7-0.2-3.4-0.4-5.1-0.7c-0.3,0-0.3,0.4-0.1,0.5c1.7,0.3,3.4,0.6,5.1,0.8
		C229.9,180.1,230,179.4,229.5,179.4L229.5,179.4z"/>
	<path fill="#2D55BC" d="M236.1,184.2c-3.5-1.2-8-2.9-11.8-2.4c-0.5,0.1-0.7,0.8-0.1,1c1.7,0.4,3.5,0.3,5.2,0.5
		c2.2,0.2,4.4,0.7,6.6,1.3C236.2,184.6,236.3,184.3,236.1,184.2L236.1,184.2z"/>
	<path fill="#2D55BC" d="M238.4,188.9c-3.1-0.7-6.2-1.4-9.2-2c-0.3-0.1-0.4,0.4-0.1,0.5c3.1,0.6,6.2,1.1,9.3,1.7
		C238.5,189.1,238.5,188.9,238.4,188.9L238.4,188.9z"/>
	<path fill="#2D55BC" d="M217.6,180.8c0.4,2.5,0.9,4.9,1.3,7.4c0.1,0.3,0.5,0.2,0.5-0.1c-0.4-2.5-0.8-5-1.2-7.5
		C218.2,180.2,217.5,180.4,217.6,180.8L217.6,180.8z"/>
	<path fill="#2D55BC" d="M223.9,186.1c0.2,4,0.9,8.3,2.9,11.9c0.2,0.4,0.9,0.1,0.8-0.3c-1.3-3.9-2.5-7.4-2.8-11.6
		C224.7,185.6,223.9,185.6,223.9,186.1L223.9,186.1z"/>
	<path fill="#2D55BC" d="M230.9,193.7c1.1,2.5,2.3,4.9,3.4,7.4c0.4,0.8,1.5,0.1,1.1-0.7c-1.2-2.4-2.4-4.9-3.6-7.3
		C231.6,192.4,230.6,193,230.9,193.7L230.9,193.7z"/>
	<path fill="#2D55BC" d="M129.4,125.4c-0.1,4.6,0.8,9.3,3.8,12.9c0.3,0.4,1,0,0.8-0.5c-1.5-4.1-3.1-7.9-3.1-12.4
		C130.9,124.4,129.4,124.4,129.4,125.4L129.4,125.4z"/>
	<path fill="#2D55BC" d="M134.8,127.5c0.8,4.4,2.1,8.6,3.8,12.8c0.3,0.8,1.4,0.3,1.1-0.4c-1.8-4-3.2-8.2-4.2-12.5
		C135.3,126.9,134.7,127.1,134.8,127.5L134.8,127.5z"/>
	<path fill="#2D55BC" d="M142,130.1c0.4,4.9,1.6,10.1,4.3,14.3c0.2,0.4,0.9,0.1,0.8-0.3c-1.9-4.6-3.5-8.9-3.9-14
		C143.1,129.3,141.9,129.3,142,130.1L142,130.1z"/>
	<path fill="#2D55BC" d="M150.1,134.4c0,5.3,0.3,11,2.1,16c0.1,0.4,0.7,0.2,0.6-0.2c-1.1-5.3-2.2-10.4-2.4-15.9
		C150.4,134.2,150.1,134.2,150.1,134.4L150.1,134.4z"/>
	<path fill="#2D55BC" d="M93.7,117.3c1.1,6.1,2.8,12,5.9,17.3c0.3,0.6,1.1,0.1,0.9-0.5c-2.4-5.6-4.7-11.1-6.1-17
		C94.2,116.7,93.6,116.9,93.7,117.3L93.7,117.3z"/>
	<path fill="#2D55BC" d="M99.8,118.7c-0.5,4.8,0.6,9.7,3,13.8c0.2,0.3,0.7,0.1,0.6-0.3c-1.6-4.5-2.8-8.9-3.5-13.6
		C99.9,118.5,99.8,118.6,99.8,118.7L99.8,118.7z"/>
	<path fill="#2D55BC" d="M105.2,119.3c0.5,4.5,1.3,9,2.5,13.3c0.1,0.5,0.9,0.3,0.8-0.2c-1.2-4.3-2.1-8.7-2.6-13.1
		C105.8,118.8,105.1,118.8,105.2,119.3L105.2,119.3z"/>
	<path fill="#2D55BC" d="M112.4,122.4c0.3,4,0.8,8.4,2.3,12.1c0.1,0.3,0.5,0.2,0.5-0.1c-0.8-4-1.9-7.9-2.2-12
		C112.8,122,112.3,122,112.4,122.4L112.4,122.4z"/>
	<path fill="#2D55BC" d="M121.4,100.6c9.3-2.4,19.3-2.7,28.9-3.1c0.4,0,0.4-0.6,0-0.7c-10-0.4-19.2,1.5-29,3.4
		C121.2,100.4,121.2,100.7,121.4,100.6L121.4,100.6z"/>
	<path fill="#2D55BC" d="M118.2,97.1c5.1-1.1,10.2-2.1,15.3-3.2c0.7-0.2,0.4-1.3-0.3-1.1c-5.1,1.1-10.2,2.2-15.3,3.3
		C117.3,96.3,117.6,97.3,118.2,97.1L118.2,97.1z"/>
	<path fill="#2D55BC" d="M152.6,159c3.1,9.5,6,17.9,11.5,26.4c0.5,0.8,1.8,0.1,1.3-0.7c-5-7.7-10.1-16.8-12.5-25.7
		C152.8,158.7,152.5,158.8,152.6,159L152.6,159z"/>
	<path fill="#2D55BC" d="M147,151.8c0.3,1.8,0.7,3.7,1,5.5c0.1,0.4,0.7,0.2,0.6-0.2c-0.4-1.8-0.8-3.6-1.2-5.5
		C147.5,151.4,147,151.5,147,151.8L147,151.8z"/>
	<path fill="#2D55BC" d="M140.6,147.7c2,10.5,3.9,21.1,9.7,30.4c0.4,0.6,1.3,0.1,1-0.6c-4.6-9.5-9.3-19.1-10.4-29.8
		C140.9,147.4,140.5,147.5,140.6,147.7L140.6,147.7z"/>
	<path fill="#2D55BC" d="M135.8,147.7c0.7,4.3,1.2,8.8,2.5,13c0.2,0.6,1.2,0.5,1.1-0.2c-0.5-4.4-1.8-8.7-2.8-13.1
		C136.5,147,135.7,147.2,135.8,147.7L135.8,147.7z"/>
	<path fill="#2D55BC" d="M114.2,138.2c0.6,3.2-0.4,6.6,0.8,9.8c0.2,0.6,1.1,0.5,1.1-0.2c0.3-3.4-1.4-6.4-1.6-9.7
		C114.4,137.9,114.1,137.9,114.2,138.2L114.2,138.2z"/>
	<path fill="#2D55BC" d="M107.2,136.3c0.3,3.1,0.6,6.2,0.8,9.3c0.1,1,1.4,0.8,1.3-0.2c-0.5-3.1-1-6.2-1.5-9.3
		C107.8,135.8,107.2,135.9,107.2,136.3L107.2,136.3z"/>
	<path fill="#2D55BC" d="M96.3,134.6c2.8,13.7,8,26.9,17.3,37.6c0.6,0.6,1.6-0.2,1.2-0.9c-7.7-11.5-14.5-23.3-18.2-36.8
		C96.6,134.3,96.3,134.4,96.3,134.6L96.3,134.6z"/>
	<path fill="#2D55BC" d="M111.8,155.8c0.9,2.5,1.7,5,2.6,7.5c0.2,0.7,1.4,0.4,1.1-0.3c-0.9-2.5-1.8-4.9-2.7-7.4
		C112.5,155,111.5,155.2,111.8,155.8L111.8,155.8z"/>
	<path fill="#2D55BC" d="M187.7,111.9c-8.5-2.2-17.8-3-26.5-1c-0.4,0.1-0.3,0.6,0.1,0.6c8.9,0,17.5-0.3,26.3,0.7
		C187.8,112.3,187.9,112,187.7,111.9L187.7,111.9z"/>
	<path fill="#2D55BC" d="M196.5,118.7c-4.5-0.5-9.4-1.7-13.9-1.3c-0.6,0.1-0.8,1-0.2,1.1c4.4,1,9.5,0.4,14.1,0.5
		C196.7,119,196.7,118.7,196.5,118.7L196.5,118.7z"/>
	<path fill="#2D55BC" d="M177.9,114.5c-3.3,0.2-6.6,0.2-9.8,1c-0.7,0.2-0.6,1.3,0.2,1.3c3.3-0.1,6.5-0.8,9.7-1.5
		C178.5,115.3,178.3,114.5,177.9,114.5L177.9,114.5z"/>
	<path fill="#2D55BC" d="M168.8,120.1c-2.3,0.4-4.6,0.7-6.9,1.1c-0.1,0-0.1,0.2,0,0.2c2.3-0.4,4.6-0.7,6.9-1.1
		C169,120.3,168.9,120.1,168.8,120.1L168.8,120.1z"/>
	<path fill="#2D55BC" d="M209.2,133.6c-5.7,0.1-12.1-0.1-17.6,1.5c-0.5,0.2-0.4,1,0.1,1c5.8-0.3,11.6-1.7,17.5-2.2
		C209.4,133.9,209.4,133.6,209.2,133.6L209.2,133.6z"/>
	<path fill="#2D55BC" d="M210.7,139.7c-1.6-0.1-3.1-0.1-4.7-0.2c-0.4,0-0.4,0.7,0,0.7c1.6,0,3.1,0,4.7,0
		C211,140.2,211,139.8,210.7,139.7L210.7,139.7z"/>
	<path fill="#2D55BC" d="M218.2,145.1c-2.5-0.1-5.1-0.2-7.6-0.4c-0.2,0-0.2,0.3,0,0.3c2.5,0.2,5.1,0.3,7.6,0.5
		C218.5,145.6,218.5,145.1,218.2,145.1L218.2,145.1z"/>
	<path fill="#2D55BC" d="M228.7,153.7c-7.1-2.1-14.3-3.1-21.7-2.3c-0.7,0.1-0.8,1.2,0,1.2c7.3-0.5,14.5-0.3,21.7,1.3
		C228.7,153.9,228.8,153.7,228.7,153.7L228.7,153.7z"/>
	<path fill="#2D55BC" d="M233.8,169.2c-1.9-0.3-3.7-0.7-5.6-1c-0.4-0.1-0.6,0.6-0.2,0.6c1.9,0.3,3.8,0.6,5.6,0.8
		C234,169.8,234.2,169.3,233.8,169.2L233.8,169.2z"/>
	<path fill="#2D55BC" d="M236.4,172.3c-1.9-0.2-3.8-0.3-5.7-0.5c-0.5,0-0.5,0.8,0,0.8c1.9,0.2,3.8,0.5,5.7,0.7
		C237,173.4,237,172.4,236.4,172.3L236.4,172.3z"/>
	<path fill="#2D55BC" d="M240.6,180.7c-1.5-0.2-3-0.4-4.6-0.6c-0.5-0.1-0.7,0.7-0.2,0.8c1.5,0.2,3,0.4,4.6,0.6
		C240.9,181.6,241.2,180.8,240.6,180.7L240.6,180.7z"/>
	<path fill="#2D55BC" d="M243.9,186.5c-1.1-1.6-4.9-2.5-6.5-1.4c-0.4,0.3-0.3,0.7,0.1,0.9c0.8,0.3,1.9,0.3,2.8,0.3
		c1.2,0,2.4,0.5,3.5,0.3C243.9,186.6,244,186.5,243.9,186.5L243.9,186.5z"/>
	<path fill="#2D55BC" d="M219.9,192.1c-0.4,2.9-0.3,6.9,1.8,9.2c0.4,0.4,1.2,0,1-0.6c-0.5-1.3-1.2-2.4-1.7-3.6
		c-0.6-1.6-0.8-3.3-0.8-5C220.2,192,219.9,191.9,219.9,192.1L219.9,192.1z"/>
	<path fill="#2D55BC" d="M224.6,199c1,1.4,1.4,3.6,2,5.2c0.2,0.5,0.8,0.2,0.6-0.3c-0.8-1.6-2-3.3-2.3-5.1
		C224.9,198.7,224.5,198.8,224.6,199L224.6,199z"/>
	<path fill="#2D55BC" d="M232.9,202c0.9,1.5,1.8,3,2.6,4.5c0.1,0.2,0.4,0,0.3-0.2c-0.9-1.5-1.8-2.9-2.8-4.4
		C233,201.8,232.9,201.9,232.9,202L232.9,202z"/>
	<path fill="#2D55BC" d="M200.9,170.9c-1.1,10.1-0.9,19.3,3.9,28.6c0.3,0.5,1.1,0.1,0.9-0.4c-3.6-8.8-6.2-18.6-4.5-28.2
		C201.3,170.8,201,170.7,200.9,170.9L200.9,170.9z"/>
	<path fill="#2D55BC" d="M195.9,178.8c0.1,4,0,9.7,2.1,13.2c0.3,0.5,1.3,0.3,1.2-0.3c-0.1-1.9-0.9-3.8-1.4-5.6
		c-0.6-2.4-1-4.8-1.3-7.3C196.5,178.4,195.9,178.4,195.9,178.8L195.9,178.8z"/>
	<path fill="#2D55BC" d="M188.8,171.5c0,5.8-0.2,13,2.2,18.4c0.2,0.5,1.1,0.3,1.1-0.3c-0.1-2.4-0.8-4.7-1.3-7.1
		c-0.7-3.6-1.1-7.3-1.4-11C189.4,171.1,188.8,171.1,188.8,171.5L188.8,171.5z"/>
	<path fill="#2D55BC" d="M180.1,172.1c0.6,2.1,1.2,4.2,1.8,6.3c0.2,0.8,1.6,0.4,1.3-0.4c-0.8-2.1-1.5-4.1-2.3-6.2
		C180.7,171.4,179.9,171.6,180.1,172.1L180.1,172.1z"/>
	<path fill="#2D55BC" d="M175,167.2c0.3,1.6,0.6,3.3,0.9,4.9c0.1,0.4,0.7,0.2,0.6-0.2c-0.3-1.6-0.6-3.3-0.9-4.9
		C175.6,166.6,174.9,166.8,175,167.2L175,167.2z"/>
	<path fill="#2D55BC" d="M165.3,187.8c0.7,2,1.2,4.4,2.5,6c0.7,0.9,2-0.1,1.8-1c-0.3-1.9-1.9-3.9-2.8-5.6
		C166.3,186.3,164.9,186.9,165.3,187.8L165.3,187.8z"/>
	<path fill="#2D55BC" d="M153.4,179.4c0.9,1.6,1.8,3.2,2.7,4.9c0.3,0.5,0.9,0.1,0.7-0.4c-0.8-1.7-1.6-3.4-2.4-5
		C154.1,178.1,153.1,178.7,153.4,179.4L153.4,179.4z"/>
	<path fill="#2D55BC" d="M118.8,166.2c1.3,3.1,3,6,5.1,8.6c0.7,0.8,1.9-0.4,1.2-1.2c-2.1-2.4-3.7-5.1-5-8
		C119.8,164.9,118.5,165.5,118.8,166.2L118.8,166.2z"/>
</g>
</svg>
