<svg width="448" height="229" viewBox="0 0 448 229" fill="none" xmlns="http://www.w3.org/2000/svg">
<path d="M88.152 123V120.264H90.12C90.792 120.264 91.368 120.088 91.848 119.736C92.36 119.384 92.616 118.552 92.616 117.24V94.296C92.616 93.08 92.36 92.312 91.848 91.992C91.368 91.64 90.84 91.464 90.264 91.464H88.152V88.728H103.656C108.392 88.728 111.88 89.608 114.12 91.368C116.392 93.128 117.528 95.656 117.528 98.952C117.528 101 117.048 102.856 116.088 104.52C115.128 106.184 113.544 107.512 111.336 108.504C109.16 109.496 106.248 109.992 102.6 109.992H101.304V117.48C101.304 118.696 101.528 119.464 101.976 119.784C102.456 120.104 103.016 120.264 103.656 120.264H106.728V123H88.152ZM102.168 107.016C104.376 107.016 105.976 106.408 106.968 105.192C107.96 103.976 108.456 101.96 108.456 99.144C108.456 96.616 108.008 94.76 107.112 93.576C106.216 92.36 104.792 91.752 102.84 91.752H101.256V107.016H102.168Z" fill="#2D55BC"/>
<path d="M137.656 123.48C133.912 123.48 130.792 122.744 128.296 121.272C125.832 119.8 123.976 117.736 122.728 115.08C121.512 112.424 120.904 109.32 120.904 105.768C120.904 102.216 121.512 99.128 122.728 96.504C123.976 93.88 125.848 91.848 128.344 90.408C130.84 88.936 133.96 88.2 137.704 88.2C141.256 88.2 144.264 88.936 146.728 90.408C149.224 91.848 151.112 93.896 152.392 96.552C153.704 99.176 154.36 102.264 154.36 105.816C154.36 109.368 153.704 112.472 152.392 115.128C151.112 117.752 149.224 119.8 146.728 121.272C144.264 122.744 141.24 123.48 137.656 123.48ZM137.656 120.168C140.44 120.168 142.392 118.904 143.512 116.376C144.632 113.848 145.192 110.328 145.192 105.816C145.192 101.304 144.632 97.8 143.512 95.304C142.392 92.776 140.456 91.512 137.704 91.512C134.952 91.512 132.984 92.776 131.8 95.304C130.648 97.8 130.072 101.304 130.072 105.816C130.072 110.328 130.648 113.848 131.8 116.376C132.952 118.904 134.904 120.168 137.656 120.168Z" fill="#2D55BC"/>
<path d="M170.137 123.48C167.737 123.48 165.769 123.272 164.233 122.856C162.697 122.408 161.481 121.848 160.585 121.176C159.721 120.472 159.113 119.736 158.761 118.968C158.409 118.2 158.233 117.48 158.233 116.808C158.233 115.528 158.505 114.536 159.049 113.832C159.625 113.096 160.361 112.584 161.257 112.296C162.185 111.976 163.161 111.816 164.185 111.816C164.185 113.832 164.505 115.48 165.145 116.76C165.785 118.008 166.633 118.936 167.689 119.544C168.745 120.12 169.865 120.408 171.049 120.408C172.809 120.408 174.185 119.912 175.177 118.92C176.169 117.928 176.665 116.808 176.665 115.56C176.665 113.96 175.945 112.68 174.505 111.72C173.065 110.76 171.033 109.752 168.409 108.696C166.041 107.736 164.185 106.728 162.841 105.672C161.529 104.584 160.601 103.416 160.057 102.168C159.513 100.888 159.241 99.512 159.241 98.04C159.241 96.024 159.785 94.296 160.873 92.856C161.961 91.384 163.433 90.248 165.289 89.448C167.145 88.648 169.257 88.248 171.625 88.248C174.121 88.248 176.153 88.536 177.721 89.112C179.289 89.656 180.441 90.376 181.177 91.272C181.945 92.136 182.329 93.064 182.329 94.056C182.329 95.24 181.817 96.232 180.793 97.032C179.801 97.832 178.153 98.232 175.849 98.232C175.849 97.24 175.657 96.216 175.273 95.16C174.921 94.104 174.345 93.208 173.545 92.472C172.777 91.736 171.817 91.368 170.665 91.368C169.417 91.368 168.361 91.704 167.497 92.376C166.633 93.016 166.201 94.024 166.201 95.4C166.201 96.136 166.409 96.872 166.825 97.608C167.241 98.312 168.041 99.048 169.225 99.816C170.409 100.584 172.137 101.432 174.409 102.36C176.745 103.288 178.585 104.28 179.929 105.336C181.273 106.36 182.233 107.496 182.809 108.744C183.385 109.96 183.673 111.336 183.673 112.872C183.673 114.952 183.113 116.792 181.993 118.392C180.905 119.992 179.337 121.24 177.289 122.136C175.273 123.032 172.889 123.48 170.137 123.48Z" fill="#2D55BC"/>
<path d="M186.683 123V120.264H188.987C189.531 120.264 190.027 120.072 190.475 119.688C190.923 119.304 191.147 118.6 191.147 117.576V94.296C191.147 93.208 190.923 92.472 190.475 92.088C190.027 91.672 189.531 91.464 188.987 91.464H186.683V88.728H204.299V91.464H201.947C201.307 91.464 200.795 91.672 200.411 92.088C200.027 92.472 199.835 93.208 199.835 94.296V117.528C199.835 118.552 200.043 119.272 200.459 119.688C200.875 120.072 201.371 120.264 201.947 120.264H204.299V123H186.683Z" fill="#2D55BC"/>
<path d="M212.653 123V120.264H214.429C215.229 120.264 215.885 120.088 216.397 119.736C216.909 119.384 217.165 118.52 217.165 117.144V91.848H213.613C212.173 91.848 211.181 92.12 210.637 92.664C210.093 93.208 209.757 94.008 209.629 95.064L209.245 98.424H205.741L205.981 88.728H237.037L237.277 98.424H233.773L233.437 95.064C233.309 94.008 232.973 93.208 232.429 92.664C231.885 92.12 230.893 91.848 229.453 91.848H225.901V117.24C225.901 118.552 226.157 119.384 226.669 119.736C227.181 120.088 227.837 120.264 228.637 120.264H230.413V123H212.653Z" fill="#2D55BC"/>
<path d="M234.991 123V120.264H235.423C236.255 120.264 236.975 120.056 237.583 119.64C238.223 119.192 238.815 118.264 239.359 116.856L249.631 88.728H257.359L267.295 116.904C267.711 118.152 268.239 119.032 268.879 119.544C269.519 120.024 270.255 120.264 271.087 120.264H271.759V123H254.863V120.264H256.783C257.263 120.264 257.711 120.152 258.127 119.928C258.575 119.672 258.799 119.224 258.799 118.584C258.799 118.168 258.735 117.752 258.607 117.336C258.511 116.92 258.415 116.6 258.319 116.376L256.735 111.816H245.503L244.255 115.56C244.159 115.944 244.031 116.44 243.871 117.048C243.711 117.624 243.631 118.12 243.631 118.536C243.631 119.688 244.271 120.264 245.551 120.264H247.759V123H234.991ZM246.511 108.648H255.727L253.087 100.056C252.799 99.128 252.495 98.104 252.175 96.984C251.855 95.864 251.583 94.76 251.359 93.672C251.103 94.696 250.799 95.768 250.447 96.888C250.095 97.976 249.759 99 249.439 99.96L246.511 108.648Z" fill="#2D55BC"/>
<path d="M272.933 123V120.264H274.709C275.509 120.264 276.149 120.088 276.629 119.736C277.141 119.384 277.397 118.552 277.397 117.24V94.296C277.397 93.08 277.141 92.312 276.629 91.992C276.149 91.64 275.589 91.464 274.949 91.464H272.933V88.728H284.357L301.205 111.624V94.296C301.205 93.144 300.965 92.392 300.485 92.04C300.037 91.656 299.493 91.464 298.853 91.464H296.789V88.728H309.509V91.464H307.445C306.741 91.464 306.165 91.672 305.717 92.088C305.269 92.504 305.045 93.304 305.045 94.488V123H300.245L281.237 97.032V117.24C281.237 118.552 281.445 119.384 281.861 119.736C282.277 120.088 282.853 120.264 283.589 120.264H285.653V123H272.933Z" fill="#2D55BC"/>
<path d="M329.422 123.48C325.678 123.48 322.558 122.744 320.062 121.272C317.598 119.8 315.742 117.736 314.494 115.08C313.278 112.424 312.67 109.32 312.67 105.768C312.67 102.216 313.278 99.128 314.494 96.504C315.742 93.88 317.614 91.848 320.11 90.408C322.606 88.936 325.726 88.2 329.47 88.2C333.022 88.2 336.03 88.936 338.494 90.408C340.99 91.848 342.878 93.896 344.158 96.552C345.47 99.176 346.126 102.264 346.126 105.816C346.126 109.368 345.47 112.472 344.158 115.128C342.878 117.752 340.99 119.8 338.494 121.272C336.03 122.744 333.006 123.48 329.422 123.48ZM329.422 120.168C332.206 120.168 334.158 118.904 335.278 116.376C336.398 113.848 336.958 110.328 336.958 105.816C336.958 101.304 336.398 97.8 335.278 95.304C334.158 92.776 332.222 91.512 329.47 91.512C326.718 91.512 324.75 92.776 323.566 95.304C322.414 97.8 321.838 101.304 321.838 105.816C321.838 110.328 322.414 113.848 323.566 116.376C324.718 118.904 326.67 120.168 329.422 120.168Z" fill="#2D55BC"/>
<path d="M151.367 155L147.793 149.287H143.506V155H141.641V141.24H148.115C149.665 141.24 150.859 141.589 151.699 142.285C152.546 142.975 152.969 143.939 152.969 145.176C152.969 146.198 152.669 147.057 152.07 147.754C151.478 148.451 150.658 148.89 149.609 149.072L153.516 155H151.367ZM151.094 145.195C151.094 144.395 150.82 143.786 150.273 143.369C149.733 142.946 148.952 142.734 147.93 142.734H143.506V147.812H148.008C148.991 147.812 149.749 147.585 150.283 147.129C150.824 146.667 151.094 146.022 151.094 145.195Z" fill="#2D55BC"/>
<path d="M159.299 155V141.24H161.164V155H159.299Z" fill="#2D55BC"/>
<path d="M178.441 151.201C178.441 152.471 177.943 153.454 176.947 154.15C175.958 154.847 174.561 155.195 172.758 155.195C169.405 155.195 167.462 154.03 166.928 151.699L168.734 151.338C168.943 152.165 169.385 152.773 170.062 153.164C170.74 153.548 171.661 153.74 172.826 153.74C174.031 153.74 174.958 153.535 175.609 153.125C176.267 152.708 176.596 152.1 176.596 151.299C176.596 150.85 176.492 150.485 176.283 150.205C176.081 149.925 175.795 149.694 175.424 149.512C175.053 149.329 174.61 149.176 174.096 149.053C173.581 148.929 173.012 148.796 172.387 148.652C171.299 148.411 170.473 148.171 169.906 147.93C169.346 147.689 168.904 147.422 168.578 147.129C168.253 146.829 168.002 146.481 167.826 146.084C167.657 145.687 167.572 145.231 167.572 144.717C167.572 143.538 168.021 142.63 168.92 141.992C169.825 141.354 171.117 141.035 172.797 141.035C174.359 141.035 175.554 141.276 176.381 141.758C177.208 142.233 177.787 143.047 178.119 144.199L176.283 144.521C176.081 143.792 175.697 143.265 175.131 142.939C174.564 142.607 173.78 142.441 172.777 142.441C171.677 142.441 170.837 142.624 170.258 142.988C169.678 143.353 169.389 143.896 169.389 144.619C169.389 145.042 169.499 145.394 169.721 145.674C169.949 145.947 170.274 146.182 170.697 146.377C171.12 146.566 171.964 146.8 173.227 147.08C173.65 147.178 174.07 147.279 174.486 147.383C174.909 147.48 175.313 147.601 175.697 147.744C176.081 147.881 176.439 148.044 176.771 148.232C177.11 148.421 177.403 148.652 177.65 148.926C177.898 149.199 178.09 149.521 178.227 149.893C178.37 150.264 178.441 150.7 178.441 151.201Z" fill="#2D55BC"/>
<path d="M189.391 142.764V155H187.535V142.764H182.809V141.24H194.117V142.764H189.391Z" fill="#2D55BC"/>
<path d="M211.814 148.057C211.814 149.495 211.538 150.755 210.984 151.836C210.437 152.917 209.65 153.747 208.621 154.326C207.592 154.906 206.378 155.195 204.979 155.195C203.566 155.195 202.345 154.909 201.316 154.336C200.294 153.763 199.513 152.936 198.973 151.855C198.432 150.768 198.162 149.502 198.162 148.057C198.162 145.856 198.764 144.137 199.969 142.9C201.173 141.657 202.85 141.035 204.998 141.035C206.398 141.035 207.612 141.315 208.641 141.875C209.669 142.428 210.454 143.236 210.994 144.297C211.541 145.358 211.814 146.611 211.814 148.057ZM209.91 148.057C209.91 146.344 209.48 145 208.621 144.023C207.768 143.047 206.561 142.559 204.998 142.559C203.423 142.559 202.205 143.04 201.346 144.004C200.486 144.967 200.057 146.318 200.057 148.057C200.057 149.782 200.49 151.152 201.355 152.168C202.228 153.177 203.436 153.682 204.979 153.682C206.567 153.682 207.784 153.193 208.631 152.217C209.484 151.234 209.91 149.847 209.91 148.057Z" fill="#2D55BC"/>
<path d="M227.148 155L223.574 149.287H219.287V155H217.422V141.24H223.896C225.446 141.24 226.641 141.589 227.48 142.285C228.327 142.975 228.75 143.939 228.75 145.176C228.75 146.198 228.451 147.057 227.852 147.754C227.259 148.451 226.439 148.89 225.391 149.072L229.297 155H227.148ZM226.875 145.195C226.875 144.395 226.602 143.786 226.055 143.369C225.514 142.946 224.733 142.734 223.711 142.734H219.287V147.812H223.789C224.772 147.812 225.531 147.585 226.064 147.129C226.605 146.667 226.875 146.022 226.875 145.195Z" fill="#2D55BC"/>
<path d="M244.631 155L243.059 150.977H236.789L235.207 155H233.273L238.889 141.24H241.008L246.535 155H244.631ZM239.924 142.646L239.836 142.92C239.673 143.46 239.432 144.154 239.113 145L237.355 149.521H242.502L240.734 144.98C240.552 144.531 240.37 144.023 240.187 143.457L239.924 142.646Z" fill="#2D55BC"/>
<path d="M260.141 155L252.777 143.281L252.826 144.229L252.875 145.859V155H251.215V141.24H253.383L260.824 153.037C260.746 151.761 260.707 150.837 260.707 150.264V141.24H262.387V155H260.141Z" fill="#2D55BC"/>
<path d="M274.059 142.764V155H272.203V142.764H267.477V141.24H278.785V142.764H274.059Z" fill="#2D55BC"/>
<path d="M283.895 155V141.24H294.334V142.764H285.76V147.178H293.748V148.682H285.76V153.477H294.734V155H283.895Z" fill="#2D55BC"/>
<path d="M2.92783 120.327C2.92504 120.276 2.91947 120.176 2.91669 120.125C2.91112 120.024 2.80751 119.979 2.76267 120.083C1.33396 121.679 1.64899 126.465 1.41033 128.551C0.846124 132.981 0.794362 137.535 0.535393 141.999C0.189262 147.63 1.5512 153.977 7.05334 156.555C8.19577 157.098 9.32203 155.519 8.3169 154.715C3.39487 150.74 3.05477 145.5 3.08452 139.633C3.08533 136.903 3.18696 134.167 3.18777 131.436C3.24456 128.804 4.12012 122.688 2.83258 120.433C2.8802 120.38 2.93061 120.377 2.92783 120.327Z" fill="#2D55BC"/>
<path d="M2.31374 151.305C2.50737 159.385 2.68266 172.623 10.1472 177.772C19.8712 184.465 31.3495 187.219 43.0976 186.62C44.6603 186.534 44.5266 184.114 42.9639 184.2C32.9801 184.701 23.812 182.579 15.0087 177.908C4.74665 172.458 6.18112 160.901 2.81226 151.177C2.69751 150.93 2.29702 151.003 2.31374 151.305Z" fill="#2D55BC"/>
<path d="M8.94651 175.26C12.6621 186.684 14.7287 196.632 26.7665 201.276C38.1323 205.653 52.4031 206.786 64.0122 202.757C65.1045 202.393 64.7998 200.539 63.646 200.704C52.83 202.616 43.0339 202.854 32.3174 200.16C27.5485 198.957 22.9955 197.085 19.2327 193.956C14.4618 189.972 12.1318 180.747 9.54585 175.125C9.27431 174.786 8.82619 174.912 8.94651 175.26Z" fill="#2D55BC"/>
<path d="M21.8974 198.258C26.1372 208.187 31.6655 216.73 42.4659 220.027C54.0364 223.533 67.5897 217.172 77.2223 211.229C78.2979 210.563 77.4359 208.689 76.2511 209.21C66.0869 213.766 57.1239 219.014 45.5359 217.936C34.3512 216.834 27.8711 206.625 22.8357 197.852C22.5054 197.365 21.6679 197.765 21.8974 198.258Z" fill="#2D55BC"/>
<path d="M4.85566 154.3C6.65844 156.728 9.45853 157.989 12.2867 158.844C15.1681 159.747 18.9876 161.154 21.987 160.533C22.4883 160.455 22.5978 159.69 22.2282 159.407C20.2684 157.796 17.2803 157.709 14.8189 157.086C11.4894 156.31 8.43166 154.962 5.23387 153.824C4.97904 153.787 4.6401 154.059 4.85566 154.3Z" fill="#2D55BC"/>
<path d="M2.4906 121.564C6.90297 125.467 12.1531 128.059 14.641 133.736C17.1289 139.413 15.9593 145.697 16.9405 151.559C17.0243 152.161 17.8392 152.268 18.0074 151.652C19.6586 145.847 18.4089 138.786 16.5763 133.073C14.615 126.861 8.13004 123.882 2.67831 121.301C2.52151 121.209 2.3338 121.472 2.4906 121.564Z" fill="#2D55BC"/>
<path d="M13.2142 128.961C19.6727 136.037 29.9167 136.583 36.1761 144.631C44.3923 155.149 41.9408 168.431 40.7386 180.531C40.6038 181.752 42.242 182.117 42.6316 180.932C46.054 170.58 46.1673 157.073 40.6756 147.365C34.683 136.825 24.4318 132.487 13.3066 128.804C13.2058 128.81 13.161 128.913 13.2142 128.961Z" fill="#2D55BC"/>
<path d="M37.7363 143.584C67.2357 145.796 67.3485 180.78 70.6913 202.843C70.9261 204.347 73.1469 204.275 73.1109 202.709C72.2357 179.549 67.1722 142.817 37.6388 141.819C36.4738 141.783 36.6189 143.494 37.7363 143.584Z" fill="#2D55BC"/>
<path d="M62.7817 159.442C70.0276 165.21 77.3436 170.418 81.0208 179.316C84.7035 188.315 81.4212 198.458 80.1023 207.531C79.8778 208.959 81.8744 209.405 82.3033 208.016C85.2158 198.501 86.3138 188.176 83.2558 178.586C80.4943 169.789 71.2886 162.41 63.1543 158.865C62.8407 158.68 62.4121 159.159 62.7817 159.442Z" fill="#2D55BC"/>
<path d="M2.96378 121.892C11.9466 144.453 22.7251 164.74 39.3854 182.578C56.7427 201.136 82.6589 208.047 98.2712 227.966C99.1978 229.178 101.374 228.3 100.781 226.715C97.7308 218.186 89.6252 212.415 82.1521 208.024C70.6526 201.227 59.206 195.387 48.8693 186.756C27.6666 169.068 15.6652 145.865 3.35592 121.668C3.29158 121.419 2.84904 121.646 2.96378 121.892Z" fill="#2D55BC"/>
<path d="M66.1898 197.327C67.1473 198.185 68.1552 199.039 69.1127 199.896C69.2723 200.039 69.5104 199.773 69.3508 199.63C68.2953 198.829 67.2902 198.025 66.2346 197.224C66.1842 197.227 66.1366 197.28 66.1898 197.327Z" fill="#2D55BC"/>
<path d="M66.3134 195.905C67.4305 196.905 68.5952 197.852 69.7123 198.852C69.9251 199.042 70.2108 198.723 69.9981 198.533C68.8334 197.586 67.6686 196.639 66.5067 195.742C66.3471 195.6 66.1539 195.762 66.3134 195.905Z" fill="#2D55BC"/>
<path d="M65.5723 192.558C66.7846 193.452 67.9466 194.348 69.1617 195.292C69.3717 195.432 69.5594 195.169 69.3494 195.029C68.0894 194.189 66.8799 193.345 65.6199 192.505C65.5667 192.457 65.5219 192.561 65.5723 192.558Z" fill="#2D55BC"/>
<path d="M61.1853 188.199C64.3104 188.937 66.4772 191.547 68.7141 193.598C68.9269 193.788 69.2658 193.517 69.1007 193.273C67.1776 190.497 64.089 189.505 61.2273 188.045C61.1237 188 61.0817 188.154 61.1853 188.199Z" fill="#2D55BC"/>
<path d="M64.8512 187.744C65.792 188.299 66.6376 188.96 67.4383 189.725C68.183 190.391 68.7344 191.22 69.4819 191.938C69.6947 192.128 69.9832 191.859 69.8685 191.613C68.8132 189.901 66.6685 188.604 64.8988 187.691C64.8456 187.643 64.798 187.696 64.8512 187.744Z" fill="#2D55BC"/>
<path d="M62.1751 184.15C64.698 184.971 66.4955 186.389 68.5058 187.997C68.7185 188.187 69.0575 187.916 68.8923 187.672C67.2686 185.739 64.6702 184.467 62.2564 183.792C62.0016 183.755 61.9678 184.06 62.1751 184.15Z" fill="#2D55BC"/>
<path d="M61.5122 181.305C63.909 182.588 66.1657 184.081 68.2852 185.835C68.5484 186.023 68.8817 185.65 68.6185 185.463C66.4991 183.709 64.1892 182.168 61.742 180.887C61.4788 180.7 61.2518 181.167 61.5122 181.305Z" fill="#2D55BC"/>
<path d="M61.611 178.518C63.7669 180.017 65.9201 181.466 68.076 182.964C68.1824 183.06 68.3225 182.85 68.2161 182.754C66.0602 181.256 63.9042 179.757 61.7987 178.255C61.6392 178.112 61.4514 178.375 61.611 178.518Z" fill="#2D55BC"/>
<path d="M61.5222 175.995C63.6641 177.242 65.6184 178.752 67.4326 180.472C67.6454 180.662 67.9311 180.343 67.7184 180.153C65.8565 178.486 63.807 177.082 61.5698 175.942C61.5166 175.894 61.4718 175.998 61.5222 175.995Z" fill="#2D55BC"/>
<path d="M61.184 173.536C63.0291 174.9 64.8238 176.268 66.6689 177.632C66.8789 177.772 67.1647 177.453 66.9547 177.313C65.062 176.002 63.1692 174.69 61.2793 173.43C61.2261 173.382 61.0804 173.491 61.184 173.536Z" fill="#2D55BC"/>
<path d="M57.4019 169.144C59.2501 169.648 60.9609 170.413 62.5821 171.386C64.2033 172.358 65.4463 173.806 66.975 174.935C67.2382 175.123 67.5771 174.851 67.4092 174.557C65.4106 171.331 61.0648 169.548 57.4832 168.785C57.2312 168.799 57.1975 169.105 57.4019 169.144Z" fill="#2D55BC"/>
<path d="M58.9401 166.783C61.1213 167.826 62.8684 169.246 64.8143 170.605C65.1279 170.79 65.4613 170.418 65.1953 170.179C63.5379 168.552 61.1495 167.42 59.0298 166.576C58.873 166.484 58.7833 166.691 58.9401 166.783Z" fill="#2D55BC"/>
<path d="M57.3671 163.938C59.5764 164.574 61.6541 165.572 63.5944 166.83C63.908 167.015 64.1826 166.494 63.869 166.309C61.8334 165.157 59.7137 164.314 57.4091 163.784C57.3083 163.789 57.2662 163.943 57.3671 163.938Z" fill="#2D55BC"/>
<path d="M56.438 161.764C59.3336 162.009 61.5708 163.149 63.9367 164.788C64.1467 164.928 64.4352 164.66 64.2224 164.469C62.1955 162.559 59.2132 161.661 56.4772 161.56C56.3288 161.619 56.3371 161.77 56.438 161.764Z" fill="#2D55BC"/>
<path d="M52.7032 158.229C54.277 158.344 55.8116 158.664 57.3545 159.135C59.309 159.735 60.9386 160.858 62.7082 161.772C63.0722 161.954 63.4476 161.427 63.1284 161.142C60.4211 158.814 56.2291 157.984 52.7369 157.924C52.5829 157.882 52.5492 158.187 52.7032 158.229Z" fill="#2D55BC"/>
<path d="M51.3711 155.168C54.6814 154.681 57.2099 155.603 60.2144 156.904C60.5252 157.038 60.8054 156.618 60.5422 156.431C58.0084 154.498 54.3062 154.298 51.304 154.868C51.1527 154.876 51.1694 155.179 51.3711 155.168Z" fill="#2D55BC"/>
<path d="M49.9802 151.958C52.9599 151.894 55.7321 152.651 58.2969 154.229C58.5601 154.416 58.7871 153.949 58.5239 153.761C55.9087 152.187 53.0385 151.486 49.9607 151.605C49.7114 151.669 49.7282 151.972 49.9802 151.958Z" fill="#2D55BC"/>
<path d="M77.0958 203.45C77.667 203.722 78.1402 204.049 78.5685 204.481C78.9941 204.862 79.1759 205.408 79.6491 205.736C79.9123 205.923 80.2036 205.705 80.1365 205.405C79.9212 204.254 78.3056 203.383 77.3732 202.979C77.0651 202.895 76.8354 203.312 77.0958 203.45Z" fill="#2D55BC"/>
<path d="M76.5421 200.75C77.8692 201.89 79.1935 202.98 80.5206 204.12C80.8397 204.406 81.316 203.874 80.9492 203.641C79.5772 202.605 78.1521 201.52 76.7802 200.484C76.6179 200.291 76.3293 200.559 76.5421 200.75Z" fill="#2D55BC"/>
<path d="M74.7507 197.613C75.784 198.011 76.722 198.515 77.6656 199.12C78.6623 199.773 79.4686 200.639 80.4205 201.395C80.7369 201.63 81.2719 201.247 81.0004 200.908C79.5363 199.118 77.0946 197.938 74.9301 197.198C74.6752 197.162 74.5435 197.523 74.7507 197.613Z" fill="#2D55BC"/>
<path d="M74.4271 193.586C75.7235 194.171 76.9247 194.863 78.0362 195.763C79.1477 196.662 80.0184 197.777 81.1327 198.727C81.449 198.962 81.8356 198.637 81.6145 198.295C80.215 195.845 77.0453 194.301 74.4243 193.535C74.3711 193.488 74.3739 193.538 74.4271 193.586Z" fill="#2D55BC"/>
<path d="M78.2551 194.234C79.3246 195.287 80.394 196.34 81.4635 197.394C81.6763 197.584 81.962 197.265 81.7493 197.074C80.6322 196.074 79.5627 195.021 78.4456 194.021C78.3364 193.875 78.0955 194.091 78.2551 194.234Z" fill="#2D55BC"/>
<path d="M75.0358 189.962C76.4752 190.388 77.7744 191.024 78.9839 191.868C80.1403 192.663 80.8652 193.887 81.9712 194.686C82.1812 194.826 82.5761 194.652 82.4586 194.355C81.9884 193.168 80.7229 192.227 79.6757 191.576C78.259 190.644 76.7553 189.968 75.1172 189.604C74.8651 189.618 74.8314 189.923 75.0358 189.962Z" fill="#2D55BC"/>
<path d="M74.6727 187.049C76.3164 187.515 77.7724 188.243 79.1415 189.23C80.2503 190.078 81.0396 191.552 82.2352 192.143C82.4956 192.28 82.7841 192.011 82.7198 191.762C82.4429 190.412 80.6678 189.398 79.517 188.703C78.0498 187.773 76.4005 187.207 74.7147 186.895C74.6111 186.851 74.5691 187.005 74.6727 187.049Z" fill="#2D55BC"/>
<path d="M75.8298 185.115C76.8266 185.767 77.8262 186.471 78.8229 187.124C79.7693 187.779 80.7744 188.583 81.8132 189.082C82.2276 189.261 82.6535 188.732 82.2811 188.399C81.4832 187.684 80.4948 187.183 79.6016 186.575C78.4508 185.88 77.3477 185.132 76.1969 184.437C75.7797 184.207 75.463 184.882 75.8298 185.115Z" fill="#2D55BC"/>
<path d="M74.7915 182.796C76.0796 183.23 77.3229 183.768 78.5241 184.46C79.6216 185.107 80.5875 186.116 81.772 186.505C82.1836 186.634 82.4582 186.114 82.2399 185.822C81.5737 184.747 80.0728 184.122 78.978 183.525C77.6788 182.889 76.2871 182.41 74.901 182.031C74.4417 181.955 74.3295 182.669 74.7915 182.796Z" fill="#2D55BC"/>
<path d="M72.8913 178.603C75.7866 179.757 78.3542 181.385 81.1038 182.649C81.4146 182.784 81.7956 182.358 81.4793 182.123C79.0014 180.288 75.9072 179.195 72.9754 178.295C72.8186 178.202 72.7345 178.51 72.8913 178.603Z" fill="#2D55BC"/>
<path d="M73.2338 175.651C76.5914 176.022 78.4193 178.904 80.7515 180.848C80.9643 181.039 81.306 180.818 81.2389 180.518C80.0469 177.247 76.1573 176.4 73.2759 175.497C73.1723 175.452 73.1302 175.606 73.2338 175.651Z" fill="#2D55BC"/>
<path d="M72.1847 172.22C75.139 172.613 77.0958 175.084 79.3637 176.779C79.5765 176.969 79.9154 176.698 79.7502 176.454C78.138 173.813 74.9148 173.131 72.2799 172.114C72.1231 172.021 72.0811 172.175 72.1847 172.22Z" fill="#2D55BC"/>
<path d="M70.9923 169.859C72.8235 170.971 74.6575 172.134 76.4886 173.247C76.8022 173.431 77.0768 172.911 76.7633 172.726C74.9321 171.613 73.0505 170.504 71.2193 169.392C70.9085 169.257 70.6815 169.725 70.9923 169.859Z" fill="#2D55BC"/>
<path d="M28.2805 204.883C28.2721 204.732 28.2666 204.631 28.2582 204.48C28.2554 204.429 28.1546 204.435 28.1574 204.485C28.1658 204.637 28.1713 204.737 28.1797 204.889C28.1853 204.989 28.2861 204.984 28.2805 204.883Z" fill="#2D55BC"/>
<path d="M28.359 204.474C28.3479 204.273 28.3395 204.121 28.3788 203.917C28.3649 203.665 28.012 203.684 27.9755 203.939C27.9469 206.166 28.3942 208.77 29.8106 210.613C30.1354 211 30.7768 210.712 30.6481 210.213C30.3403 209.219 29.7833 208.289 29.4252 207.297C29.0082 206.157 28.6417 205.015 28.376 203.866C28.2276 203.925 28.1268 203.931 27.9783 203.99C28.0399 204.188 28.0482 204.34 28.1098 204.539C28.1181 204.69 28.3674 204.625 28.359 204.474Z" fill="#2D55BC"/>
<path d="M30.1596 205.032C30.198 207.558 30.6478 211.123 32.5684 212.938C32.7812 213.129 33.1229 212.908 33.0558 212.608C32.6865 211.415 31.9195 210.345 31.4493 209.157C30.9205 207.821 30.6408 206.421 30.5124 205.012C30.4481 204.763 30.1456 204.78 30.1596 205.032Z" fill="#2D55BC"/>
<path d="M31.9543 206.399C32.8636 209.13 33.8932 212.208 35.7353 214.432C35.8977 214.625 36.2954 214.502 36.1778 214.205C35.0669 211.486 33.5133 208.993 32.4976 206.167C32.3801 205.87 31.8339 206.052 31.9543 206.399Z" fill="#2D55BC"/>
<path d="M35.469 205.952C35.7171 209.528 36.8975 214.418 39.9521 216.626C40.1649 216.817 40.4534 216.548 40.3387 216.301C39.5522 214.878 38.4772 213.724 37.6906 212.301C36.571 210.341 35.9444 208.151 35.6706 205.941C35.6146 205.843 35.4634 205.851 35.469 205.952Z" fill="#2D55BC"/>
<path d="M39.5641 212.35C40.2777 214.282 41.2544 216.402 42.7018 217.89C42.9174 218.131 43.3039 217.806 43.136 217.512C41.9771 215.756 40.7286 214.207 39.861 212.232C39.7995 212.033 39.5026 212.151 39.5641 212.35Z" fill="#2D55BC"/>
<path d="M41.331 213.213C41.6075 215.473 42.2818 217.61 43.4042 219.621C43.5749 219.965 44.1127 219.632 43.8916 219.29C42.6767 217.436 41.8568 215.408 41.4822 213.204C41.4766 213.103 41.275 213.115 41.331 213.213Z" fill="#2D55BC"/>
<path d="M42.9884 214.84C43.6153 216.12 44.2926 217.397 44.9223 218.728C45.0371 218.974 45.3788 218.753 45.264 218.507C44.5867 217.23 43.8618 216.005 43.1844 214.728C43.1257 214.58 42.9324 214.742 42.9884 214.84Z" fill="#2D55BC"/>
<path d="M43.6584 212.326C44.3216 214.261 45.3206 216.784 46.9613 218.11C47.174 218.3 47.4626 218.031 47.3478 217.785C46.8972 216.95 46.2001 216.23 45.7018 215.449C45.0384 214.424 44.5235 213.34 44.1065 212.2C43.9918 211.953 43.5941 212.076 43.6584 212.326Z" fill="#2D55BC"/>
<path d="M45.0284 210.581C45.5124 212.021 46.0945 213.405 46.825 214.729C47.4408 215.808 48.1349 217.387 49.3277 217.928C49.5349 218.018 49.7282 217.856 49.6639 217.606C49.3505 216.511 48.3426 215.657 47.6848 214.732C46.803 213.416 46.0641 211.94 45.4765 210.455C45.4094 210.156 44.9108 210.284 45.0284 210.581Z" fill="#2D55BC"/>
<path d="M48.1894 212.884C48.5952 213.823 49.099 214.705 49.6981 215.481C50.188 216.111 50.899 217.083 51.7139 217.19C51.9687 217.226 52.1565 216.963 52.0445 216.767C51.759 216.176 50.9246 215.716 50.4431 215.237C49.746 214.517 49.1917 213.638 48.7355 212.702C48.5648 212.358 48.0187 212.54 48.1894 212.884Z" fill="#2D55BC"/>
<path d="M50.7096 213.655C51.3897 214.983 52.3163 216.196 53.481 217.143C53.9038 217.473 54.4753 216.835 54.0525 216.504C52.8934 215.658 51.8743 214.602 51.1466 213.328C50.931 213.087 50.5417 213.361 50.7096 213.655Z" fill="#2D55BC"/>
<path d="M52.4071 212.348C53.3139 214.118 54.4672 215.773 55.7634 217.269C56.0321 217.558 56.5278 217.379 56.6651 217.118C56.7548 216.911 56.8473 216.754 56.9342 216.497C57.0659 216.135 56.7467 215.85 56.4022 216.02C56.2062 216.132 56.0101 216.244 55.814 216.356C56.0689 216.393 56.2705 216.382 56.5253 216.418C55.1395 215.129 53.8965 213.681 52.8972 212.068C52.7265 211.723 52.2363 212.003 52.4071 212.348Z" fill="#2D55BC"/>
<path d="M55.5324 212.175C56.3245 213.699 57.7633 215.945 59.5106 216.455C60.0259 216.629 60.2389 215.91 59.9674 215.571C59.3739 214.896 58.5422 214.486 57.9039 213.915C57.2124 213.296 56.5657 212.573 56.017 211.794C55.8015 211.554 55.3617 211.831 55.5324 212.175Z" fill="#2D55BC"/>
<path d="M56.6704 208.977C57.7087 211.296 59.6989 214.372 62.1798 215.347C62.7986 215.566 63.3169 214.88 62.8354 214.401C61.9255 213.49 60.7775 212.846 59.8172 211.938C58.8541 210.98 58.0816 209.809 57.4574 208.58C57.2279 208.087 56.4409 208.484 56.6704 208.977Z" fill="#2D55BC"/>
<path d="M61.0668 209.847C61.6715 210.724 62.3209 211.497 63.018 212.217C63.606 212.791 64.5802 213.951 65.4876 213.9C65.7396 213.886 65.9273 213.623 65.8153 213.427C65.5215 212.685 64.4351 212.239 63.7995 211.718C63.0044 211.054 62.2541 210.287 61.6522 209.46C61.3779 209.071 60.7925 209.457 61.0668 209.847Z" fill="#2D55BC"/>
<path d="M64.7074 209.848C65.7658 210.7 66.8241 211.551 67.8796 212.352C68.1428 212.54 68.4762 212.168 68.213 211.98C67.107 211.182 66.0487 210.33 64.9428 209.531C64.7328 209.391 64.4975 209.708 64.7074 209.848Z" fill="#2D55BC"/>
<path d="M67.4215 208.636C68.0793 209.56 68.8296 210.328 69.7283 211.037C70.3611 211.507 71.4726 212.407 72.3184 212.158C72.5677 212.093 72.6518 211.785 72.4894 211.592C72.1003 210.956 71.081 210.81 70.4538 210.44C69.513 209.886 68.6619 209.124 67.9592 208.303C67.6877 207.964 67.1499 208.297 67.4215 208.636Z" fill="#2D55BC"/>
<path d="M70.0708 208.085C70.6139 208.763 71.2551 209.385 71.9886 209.85C72.6186 210.27 73.4642 210.931 74.2651 210.786C74.5648 210.719 74.5425 210.316 74.3829 210.173C73.9518 209.691 73.1369 209.584 72.5657 209.313C71.7845 208.901 71.1489 208.38 70.5078 207.758C70.2895 207.466 69.8553 207.844 70.0708 208.085Z" fill="#2D55BC"/>
<path d="M16.5325 186.268C16.4337 189.054 16.8473 191.964 18.3924 194.306C18.5604 194.6 19.0533 194.37 18.9358 194.073C17.7827 191.508 16.8901 189.079 16.7845 186.254C16.7734 186.052 16.5214 186.066 16.5325 186.268Z" fill="#2D55BC"/>
<path d="M18.4135 189.197C18.9029 191.648 19.0168 194.625 21.1335 196.328C21.293 196.471 21.6376 196.3 21.5228 196.054C20.4369 193.788 18.5612 191.869 18.562 189.139C18.5564 189.038 18.4052 189.046 18.4135 189.197Z" fill="#2D55BC"/>
<path d="M21.0674 192.388C21.7921 194.522 22.8023 197.247 24.4569 198.824C24.6724 199.065 25.1122 198.788 24.9947 198.491C24.5357 197.505 23.8834 196.682 23.3264 195.752C22.6574 194.626 22.1369 193.441 21.7144 192.201C21.5885 191.752 20.9443 191.99 21.0674 192.388Z" fill="#2D55BC"/>
<path d="M23.9235 193.747C24.2452 194.993 24.7125 196.131 25.3283 197.209C25.8321 198.091 26.5626 199.416 27.5455 199.817C27.8031 199.904 28.0944 199.685 28.0301 199.436C27.7279 198.543 26.8796 197.831 26.3813 197.05C25.6619 195.926 25.1918 194.739 24.8169 193.445C24.6351 192.899 23.792 193.198 23.9235 193.747Z" fill="#2D55BC"/>
<path d="M26.3718 191.387C27.0542 194.585 28.6768 200.159 31.8968 201.7C32.2608 201.882 32.6978 201.555 32.5243 201.16C31.9366 199.675 30.6096 198.535 29.6774 197.221C28.4149 195.42 27.4914 193.348 26.8199 191.261C26.75 190.911 26.3019 191.037 26.3718 191.387Z" fill="#2D55BC"/>
<path d="M31.159 196.583C31.7133 197.463 32.2171 198.345 32.7713 199.225C33.2696 200.006 33.6809 201.045 34.4677 201.558C34.6777 201.698 35.0698 201.474 35.0055 201.225C34.8573 200.373 34.2162 199.752 33.7235 199.071C33.0657 198.147 32.3574 197.225 31.6968 196.25C31.4729 195.858 30.9351 196.191 31.159 196.583Z" fill="#2D55BC"/>
<path d="M34.3371 198.279C34.8242 198.858 35.2637 199.491 35.7508 200.071C36.1315 200.556 36.4674 201.144 37.0441 201.517C37.3577 201.702 37.7919 201.324 37.624 201.03C37.3385 200.439 36.8094 200.013 36.381 199.581C35.8463 199.055 35.3088 198.478 34.774 197.951C34.5557 197.66 34.1215 198.038 34.3371 198.279Z" fill="#2D55BC"/>
<path d="M34.1677 193.383C35.2313 195.246 36.3426 197.055 37.5014 198.812C38.4364 200.176 39.2928 201.949 40.7544 202.778C41.0148 202.915 41.3033 202.647 41.239 202.397C40.7494 200.857 39.3635 199.568 38.3809 198.257C37.124 196.557 35.9148 194.804 34.8035 192.994C34.5264 192.554 33.8934 192.994 34.1677 193.383Z" fill="#2D55BC"/>
<path d="M39.2754 194.315C39.8742 196.001 40.7727 197.62 41.9597 198.97C43.0375 200.174 44.7061 202.003 46.5264 202.004C46.728 201.993 46.9157 201.73 46.7533 201.536C45.8323 200.424 44.2894 199.953 43.1779 199.054C41.5904 197.777 40.3839 196.074 39.5247 194.25C39.4155 194.105 39.2167 194.166 39.2754 194.315Z" fill="#2D55BC"/>
<path d="M44.0128 197.693C45.3594 199.186 46.8965 200.467 48.6241 201.534C48.9908 201.767 49.3103 201.142 48.9463 200.96C47.1766 200.047 45.6452 198.867 44.2537 197.478C44.0914 197.284 43.9037 197.548 44.0128 197.693Z" fill="#2D55BC"/>
<path d="M46.7179 198.151C47.4738 199.019 48.2745 199.784 49.2209 200.439C50.0608 201 51.3152 201.739 52.371 201.63C52.6231 201.617 52.7576 201.306 52.5448 201.115C51.7553 200.552 50.7331 200.356 49.896 199.846C48.9048 199.294 48.0032 198.535 47.2978 197.663C47.029 197.375 46.4492 197.862 46.7179 198.151Z" fill="#2D55BC"/>
<path d="M50.9665 197.258C51.8875 198.371 52.9542 199.373 54.0657 200.273C55.0149 200.979 56.2915 202.122 57.5014 202.055C58.0054 202.027 58.126 201.464 57.8545 201.125C57.1518 200.304 55.6649 199.932 54.6737 199.38C53.4725 198.687 52.4114 197.785 51.4483 196.827C51.1796 196.539 50.6977 196.97 50.9665 197.258Z" fill="#2D55BC"/>
<path d="M55.9283 199.209C56.8215 199.817 57.7818 200.725 58.8123 201.072C59.3275 201.246 59.4929 200.58 59.2242 200.291C58.5243 199.521 57.3314 198.98 56.4439 198.473C56.0211 198.142 55.5056 198.879 55.9283 199.209Z" fill="#2D55BC"/>
<path d="M37.3631 174.347C38.2535 174.904 39.0486 175.568 39.7989 176.336C40.3896 176.96 40.8514 177.997 41.6718 178.204C41.9799 178.288 42.2684 178.02 42.2993 177.664C42.2968 176.703 41.1992 176.056 40.5132 175.538C39.6173 174.879 38.6261 174.327 37.59 173.879C37.3324 173.792 37.1027 174.209 37.3631 174.347Z" fill="#2D55BC"/>
<path d="M37.9432 172.949C38.7327 173.513 39.5223 174.076 40.2615 174.642C40.9446 175.109 41.8041 176.023 42.619 176.129C42.9243 176.163 43.2128 175.894 43.0952 175.597C42.8014 174.855 41.9194 174.449 41.2866 173.978C40.4411 173.317 39.5983 172.706 38.7024 172.048C38.1172 171.524 37.26 172.482 37.9432 172.949Z" fill="#2D55BC"/>
<path d="M38.4172 170.547C39.3608 171.152 40.2511 171.71 41.1947 172.315C41.9815 172.827 42.7262 173.494 43.6391 173.545C43.9948 173.576 44.1714 173.111 44.0034 172.817C43.5052 172.035 42.4747 171.688 41.6935 171.276C40.7527 170.721 39.8147 170.217 38.8739 169.662C38.2999 169.34 37.8936 170.222 38.4172 170.547Z" fill="#2D55BC"/>
<path d="M35.1174 163.903C36.6715 164.576 38.0826 165.408 39.4518 166.394C40.7145 167.285 41.7475 168.593 43.0579 169.431C43.4751 169.661 43.8505 169.134 43.6294 168.792C42.9044 167.568 41.4932 166.736 40.3396 165.991C38.7633 164.915 37.1001 164.097 35.3444 163.435C35.0308 163.251 34.7534 163.721 35.1174 163.903Z" fill="#2D55BC"/>
<path d="M39.5593 162.849C40.5 163.403 41.3456 164.065 42.0931 164.782C42.8938 165.546 43.4536 166.527 44.3047 167.289C44.6771 167.622 45.3129 167.233 45.1338 166.737C44.3139 164.71 41.7995 163.129 39.8787 162.224C39.4643 162.045 39.1925 162.616 39.5593 162.849Z" fill="#2D55BC"/>
<path d="M36.0796 158.44C38.5633 159.465 40.6156 160.919 42.8219 162.416C43.1887 162.648 43.5613 162.071 43.2422 161.786C41.3244 160.021 38.7315 158.849 36.3093 158.022C35.9985 157.888 35.7688 158.305 36.0796 158.44Z" fill="#2D55BC"/>
<path d="M35.5373 155.031C38.343 156.393 41.0113 158.015 43.5368 159.797C43.8504 159.982 44.1334 159.613 43.817 159.377C41.1935 157.651 38.4803 156.133 35.6298 154.875C35.5262 154.83 35.4841 154.984 35.5373 155.031Z" fill="#2D55BC"/>
<path d="M32.6091 151.451C34.2556 151.967 35.8069 152.589 37.3637 153.312C38.9206 154.035 40.2953 155.122 41.8997 155.792C42.2105 155.927 42.4935 155.557 42.2275 155.319C39.8282 153.075 35.7735 151.985 32.6484 151.247C32.542 151.152 32.4551 151.409 32.6091 151.451Z" fill="#2D55BC"/>
<path d="M33.5173 148.671C34.8697 149.355 36.1296 150.195 37.3924 151.086C38.5011 151.935 39.4305 153.198 40.6289 153.84C40.9957 154.072 41.3739 153.596 41.1528 153.255C40.4866 152.179 39.1818 151.442 38.1822 150.739C36.7655 149.806 35.2562 149.03 33.6518 148.36C33.495 148.268 33.3101 148.581 33.5173 148.671Z" fill="#2D55BC"/>
<path d="M31.8072 145.175C34.5204 146.694 37.0403 148.375 39.423 150.317C39.8457 150.647 40.4172 150.009 39.9944 149.678C37.4634 147.796 34.795 146.173 31.9866 144.761C31.7822 144.722 31.6 145.086 31.8072 145.175Z" fill="#2D55BC"/>
<path d="M7.26649 164.987C7.22893 168.882 8.23881 172.518 10.6351 175.621C10.7975 175.815 11.1392 175.593 10.9768 175.4C8.8802 172.229 7.52859 168.815 7.36731 164.981C7.36452 164.931 7.2637 164.937 7.26649 164.987Z" fill="#2D55BC"/>
<path d="M9.02946 169.44C9.91373 171.717 10.8512 174.042 11.7355 176.319C11.8502 176.565 12.2479 176.442 12.1332 176.196C11.1481 173.924 10.163 171.653 9.1779 169.381C9.17232 169.281 9.02389 169.339 9.02946 169.44Z" fill="#2D55BC"/>
<path d="M11.9412 171.808C12.6462 174.499 13.8382 177.77 15.8679 179.731C16.1367 180.02 16.5681 179.591 16.3497 179.3C15.7312 178.171 14.9193 177.205 14.2503 176.079C13.4638 174.656 12.8762 173.172 12.4342 171.578C12.3643 171.228 11.8181 171.41 11.9412 171.808Z" fill="#2D55BC"/>
<path d="M14.1826 168.448C14.7023 172.363 16.0785 178.051 19.3542 180.6C19.6174 180.788 20.1608 180.556 19.9397 180.214C19.086 178.492 17.689 177.001 16.7374 175.335C15.5086 173.228 14.77 170.842 14.2358 168.495C14.2806 168.392 14.1798 168.397 14.1826 168.448Z" fill="#2D55BC"/>
<path d="M18.5323 175.792C19.1005 176.923 19.7191 178.052 20.4329 179.074C21.0935 180.049 21.978 181.416 23.0196 181.965C23.3836 182.147 23.6638 181.727 23.4959 181.433C22.9333 180.403 21.8246 179.554 21.1135 178.582C20.3521 177.613 19.6859 176.537 19.1205 175.456C18.9554 175.212 18.3616 175.447 18.5323 175.792Z" fill="#2D55BC"/>
<path d="M21.0695 175.955C22.1808 177.764 23.3424 179.571 24.4537 181.38C24.8987 182.114 25.8114 183.075 26.6349 182.423C26.8282 182.26 26.8619 181.955 26.6043 181.868C25.3106 181.333 24.7929 180.199 24.0735 179.076C23.3009 177.905 22.5255 176.683 21.753 175.513C21.4731 175.022 20.742 175.518 21.0695 175.955Z" fill="#2D55BC"/>
<path d="M21.998 170.797C23.901 175.04 26.1007 180.076 29.5163 183.325C29.9951 183.754 30.617 183.113 30.3371 182.623C29.1615 180.564 27.5433 178.732 26.1689 176.735C24.8449 174.735 23.6189 172.679 22.5414 170.564C22.3734 170.27 21.8805 170.5 21.998 170.797Z" fill="#2D55BC"/>
<path d="M28.1794 177.433C29.0751 179.001 30.1165 180.461 31.2054 181.867C32.076 182.982 33.1257 184.592 34.467 185.074C34.8282 185.206 35.4696 184.918 35.2401 184.425C34.6692 183.243 33.4092 182.402 32.4966 181.442C31.1556 180.049 29.9602 178.548 28.8601 176.94C28.5354 176.554 27.9023 176.993 28.1794 177.433Z" fill="#2D55BC"/>
<path d="M33.2112 179.734C33.9698 180.652 34.7285 181.571 35.4871 182.49C36.0806 183.165 36.6544 184.397 37.6205 184.496C37.9762 184.527 38.2675 184.308 38.2984 183.953C38.2959 182.992 37.1927 182.244 36.5488 181.572C35.6921 180.709 34.8858 179.843 34.0291 178.98C33.6036 178.599 32.8305 179.249 33.2112 179.734Z" fill="#2D55BC"/>
<path d="M4.1752 144.73C3.86609 148.287 4.37189 151.95 6.45735 154.919C6.6757 155.21 7.16865 154.981 7.04833 154.634C5.8563 151.362 4.72304 148.239 4.32642 144.722C4.32364 144.672 4.16963 144.63 4.1752 144.73Z" fill="#2D55BC"/>
<path d="M5.97267 146.148C5.80922 149.595 6.39885 153.861 8.96612 156.398C9.1789 156.589 9.57103 156.365 9.4535 156.068C8.05148 152.657 6.386 149.968 6.1239 146.14C6.11833 146.039 5.9671 146.047 5.97267 146.148Z" fill="#2D55BC"/>
<path d="M8.16983 150.223C8.64831 151.562 9.22482 152.845 9.85174 154.125C10.4227 155.307 11.1783 157.085 12.4215 157.623C12.6287 157.713 12.976 157.593 12.9089 157.293C12.6964 156.192 11.7921 155.383 11.137 154.509C10.1489 153.097 9.35682 151.573 8.61515 150.047C8.49762 149.75 8.05229 149.926 8.16983 150.223Z" fill="#2D55BC"/>
<path d="M11.1272 149.756C11.5665 151.3 12.1037 152.787 12.8398 154.212C13.4667 155.492 14.2084 157.019 15.5076 157.655C15.8184 157.79 16.1574 157.518 16.0398 157.221C15.6201 156.031 14.6122 155.176 13.8984 154.154C12.8598 152.745 12.1182 151.219 11.4241 149.639C11.3626 149.44 11.0657 149.558 11.1272 149.756Z" fill="#2D55BC"/>
<path d="M15.1505 153.023C15.8699 154.146 16.6369 155.216 17.4039 156.286C18.003 157.062 18.6216 158.191 19.6493 158.488C20.0105 158.62 20.2402 158.203 20.1731 157.903C19.969 156.953 18.9162 156.203 18.3227 155.528C17.4605 154.564 16.6962 153.544 15.932 152.525C15.5513 152.04 14.8174 152.485 15.1505 153.023Z" fill="#2D55BC"/>
<path d="M13.9108 140.653C14.6135 141.474 15.3134 142.244 16.016 143.065C16.2316 143.306 16.565 142.933 16.3494 142.692C15.5991 141.925 14.8488 141.157 14.0985 140.39C13.9894 140.244 13.7484 140.46 13.9108 140.653Z" fill="#2D55BC"/>
<path d="M14.0403 138.421C15.0117 139.53 15.9327 140.642 16.9042 141.752C17.1225 142.043 17.5091 141.718 17.2907 141.427C16.3221 140.368 15.303 139.312 14.3316 138.203C14.1216 138.063 13.8807 138.278 14.0403 138.421Z" fill="#2D55BC"/>
<path d="M12.2829 134.069C12.9939 135.041 13.7022 135.962 14.4132 136.934C14.5784 137.178 15.0181 136.901 14.853 136.657C14.1923 135.682 13.4813 134.71 12.8207 133.735C12.5519 133.447 12.0618 133.727 12.2829 134.069Z" fill="#2D55BC"/>
<path d="M57.6684 158.41C60.21 162.314 61.3514 166.499 63.1032 170.75C63.2235 171.097 63.7752 171.016 63.7529 170.613C63.3986 166.031 60.8823 161.67 58.2538 158.023C57.9822 157.684 57.4472 158.068 57.6684 158.41Z" fill="#2D55BC"/>
<path d="M64.0393 177.626C64.632 181.031 64.925 184.504 65.4197 187.965C65.4868 188.265 65.9405 188.24 65.9237 187.937C65.8324 184.454 65.0857 181.006 64.1905 177.617C64.1318 177.469 63.9833 177.528 64.0393 177.626Z" fill="#2D55BC"/>
<path d="M43.5534 150.948C44.5132 153.676 44.77 156.493 45.4777 159.235C45.542 159.484 45.8893 159.364 45.8782 159.162C45.9266 156.379 44.8045 153.457 43.7019 150.889C43.6963 150.788 43.5479 150.847 43.5534 150.948Z" fill="#2D55BC"/>
<path d="M46.5478 167.62C46.2532 169.608 45.7176 171.812 45.829 173.828C45.8485 174.181 46.3554 174.204 46.3891 173.898C46.835 171.902 46.6116 169.689 46.6514 167.665C46.6458 167.564 46.545 167.569 46.5478 167.62Z" fill="#2D55BC"/>
<path d="M75.6373 173.395C77.2744 177.4 78.0096 181.556 78.6497 185.818C78.7168 186.118 79.1201 186.096 79.1538 185.791C79.2587 181.285 77.8709 177.215 75.7353 173.339C75.6849 173.342 75.6345 173.344 75.6373 173.395Z" fill="#2D55BC"/>
<path d="M34.1954 147.218C36.1071 150.702 36.3915 154.934 36.7068 158.81C36.7263 159.162 37.3368 159.23 37.3677 158.874C37.9347 154.494 36.3199 150.893 34.3411 147.108C34.2879 147.061 34.1394 147.12 34.1954 147.218Z" fill="#2D55BC"/>
<path d="M19.3756 137.064C19.9011 140.17 20.2838 143.436 20.4061 146.564C20.434 147.068 21.1397 147.029 21.1623 146.522C21.1297 143.187 20.6601 140.179 19.6248 137C19.6193 136.899 19.37 136.964 19.3756 137.064Z" fill="#2D55BC"/>
<path d="M22.44 144.024C22.4565 145.237 22.5261 146.497 22.5425 147.71C22.5481 147.811 22.6993 147.802 22.6938 147.702C22.6773 146.489 22.6581 145.226 22.6417 144.013C22.6837 143.859 22.4317 143.873 22.44 144.024Z" fill="#2D55BC"/>
<path d="M10.6119 131.279C10.7823 132.533 10.9556 133.839 11.126 135.093C11.1987 135.494 11.8008 135.41 11.6749 134.962C11.4037 133.713 11.1828 132.461 10.9115 131.212C10.85 131.013 10.5503 131.08 10.6119 131.279Z" fill="#2D55BC"/>
<path d="M5.22659 150.032C6.29327 151.035 7.4552 151.931 8.71516 152.772C9.92192 153.565 11.3891 154.495 12.8593 154.565C13.1645 154.599 13.3383 154.084 13.0751 153.896C12.0196 153.095 10.6895 152.814 9.49663 152.274C8.04339 151.595 6.73303 150.758 5.46471 149.766C5.25751 149.676 5.06701 149.889 5.22659 150.032Z" fill="#2D55BC"/>
<path d="M5.47972 146.377C6.93548 148.016 8.53132 149.445 10.27 150.714C10.5332 150.902 10.8666 150.529 10.6034 150.342C8.86189 149.022 7.31368 147.54 5.85792 145.901C5.64236 145.661 5.26416 146.136 5.47972 146.377Z" fill="#2D55BC"/>
<path d="M11.5179 173.297C15.5916 176.561 21.0765 180.657 26.4644 181.168C26.7697 181.202 26.949 180.787 26.6354 180.603C24.3899 179.311 21.724 178.649 19.2907 177.621C16.5438 176.407 13.9819 174.88 11.5655 173.244C11.5123 173.196 11.4647 173.25 11.5179 173.297Z" fill="#2D55BC"/>
<path d="M28.9654 180.676C30.4242 181.455 32.3927 182.307 34.101 182.111C34.4035 182.095 34.4316 181.689 34.1236 181.605C33.3507 181.344 32.5386 181.288 31.7209 181.131C30.85 180.926 29.9736 180.62 29.1475 180.312C28.9403 180.222 28.7554 180.536 28.9654 180.676Z" fill="#2D55BC"/>
<path d="M21.1632 190.461C23.3464 194.285 29.5936 196.619 33.7552 195.985C34.0549 195.918 34.1307 195.458 33.8254 195.425C31.3275 195.057 29.1908 194.821 26.8135 193.891C24.6938 193.047 23.196 191.563 21.3089 190.352C21.2025 190.257 21.1072 190.363 21.1632 190.461Z" fill="#2D55BC"/>
<path d="M38.147 194.023C40.4794 195.057 43.5653 195.999 46.1643 195.451C46.5143 195.381 46.3352 194.885 46.0328 194.902C44.6102 194.778 43.2547 194.954 41.8293 194.78C40.6084 194.645 39.3763 194.309 38.189 193.869C38.0854 193.824 38.0433 193.978 38.147 194.023Z" fill="#2D55BC"/>
<path d="M39.4385 210.991C42.8043 212.423 46.3747 212.985 49.9092 211.98C50.1584 211.916 50.0829 211.465 49.8309 211.479C46.361 211.822 42.9221 211.81 39.5703 210.63C39.3686 210.641 39.2845 210.949 39.4385 210.991Z" fill="#2D55BC"/>
<path d="M48.7489 214.775C54.7081 215.558 61.2978 214.941 66.362 211.425C66.7514 211.151 66.4576 210.408 65.9618 210.588C60.2762 212.924 55.0696 214.779 48.7826 214.469C48.5782 214.43 48.5445 214.735 48.7489 214.775Z" fill="#2D55BC"/>
<path d="M60.1065 208.939C61.518 208.861 62.9295 208.783 64.3409 208.705C64.6938 208.686 64.6603 208.081 64.3075 208.1C62.896 208.178 61.4846 208.256 60.0731 208.334C59.6698 208.357 59.7033 208.961 60.1065 208.939Z" fill="#2D55BC"/>
<path d="M39.8309 143.974C41.432 146.413 42.7419 149.071 44.2478 151.617C44.4157 151.911 44.9087 151.682 44.7911 151.385C43.6774 148.615 41.8746 146.187 39.9793 143.915C39.9206 143.766 39.7749 143.876 39.8309 143.974Z" fill="#2D55BC"/>
<path d="M42.0431 144.66C44.5655 147.302 45.987 151.066 47.0866 154.494C47.2069 154.842 47.753 154.66 47.6327 154.312C46.5109 150.481 44.4366 147.714 42.1383 144.554C42.1355 144.504 41.9899 144.613 42.0431 144.66Z" fill="#2D55BC"/>
<path d="M45.6553 145.978C48.6531 150.818 49.9986 155.951 51.2124 161.446C51.2879 161.897 51.9348 161.71 51.963 161.304C51.847 155.546 49.3338 150.325 45.9494 145.81C45.787 145.616 45.5433 145.782 45.6553 145.978Z" fill="#2D55BC"/>
<path d="M49.8331 147.466C51.6972 151.003 52.5054 154.65 53.5741 158.434C53.7027 158.932 54.5037 158.787 54.4759 158.283C54.2558 154.3 52.3302 150.564 49.9788 147.357C49.8724 147.262 49.7771 147.368 49.8331 147.466Z" fill="#2D55BC"/>
<path d="M54.2934 150.405C54.8557 152.346 55.4656 154.234 56.028 156.174C56.0923 156.424 56.49 156.301 56.4257 156.051C55.8633 154.11 55.301 152.17 54.7891 150.226C54.722 149.926 54.2263 150.105 54.2934 150.405Z" fill="#2D55BC"/>
<path d="M19.0347 134.555C20.6077 137.401 21.3293 140.395 22.3562 143.422C22.4737 143.719 22.975 143.641 22.9051 143.291C22.6288 140.121 20.9411 137.028 19.228 134.393C19.172 134.295 18.9759 134.407 19.0347 134.555Z" fill="#2D55BC"/>
<path d="M22.4478 136.844C24.2305 140.74 25.1087 144.737 26.2948 148.817C26.4179 149.215 27.0677 149.078 27.0454 148.675C26.5622 144.505 24.7151 140.359 22.8399 136.62C22.7279 136.424 22.3862 136.645 22.4478 136.844Z" fill="#2D55BC"/>
<path d="M26.5977 137.828C28.6801 141.657 29.1439 145.474 29.98 149.625C30.1087 150.123 30.9656 150.076 31.0386 149.566C31.4095 145.299 29.3525 141.013 26.8918 137.66C26.7295 137.467 26.4886 137.683 26.5977 137.828Z" fill="#2D55BC"/>
<path d="M4.48833 155.887C6.24879 159.38 9.06226 162.714 12.7332 164.179C12.9908 164.266 13.1758 163.953 12.9154 163.815C9.51064 161.678 6.60165 159.361 4.58358 155.781C4.57801 155.68 4.43235 155.789 4.48833 155.887Z" fill="#2D55BC"/>
<path d="M5.49489 161.293C7.55807 163.859 10.6573 166.873 13.9448 167.803C14.1492 167.843 14.1857 167.588 14.0793 167.493C12.6093 166.512 10.9544 165.845 9.53211 164.811C8.10979 163.777 6.82754 162.534 5.64055 161.183C5.58735 161.136 5.43891 161.195 5.49489 161.293Z" fill="#2D55BC"/>
<path d="M7.19577 167.367C7.67173 167.746 8.1477 168.124 8.62367 168.502C8.67686 168.55 8.82252 168.44 8.71891 168.396C8.24295 168.017 7.76698 167.639 7.29101 167.261C7.23782 167.213 7.14257 167.32 7.19577 167.367Z" fill="#2D55BC"/>
<path d="M46.6462 184.958C47.4815 182.687 48.115 180.427 47.9281 177.96C47.9059 177.556 47.245 177.492 47.1664 177.901C46.7877 180.197 46.507 182.437 45.8706 184.646C45.7445 185.109 46.5173 185.369 46.6462 184.958Z" fill="#2D55BC"/>
<path d="M48.3401 186.33C48.4861 185.311 48.5816 184.294 48.7275 183.275C48.7668 183.071 48.4083 182.989 48.4195 183.191C48.2735 184.21 48.178 185.227 48.0321 186.246C47.9928 186.451 48.3009 186.535 48.3401 186.33Z" fill="#2D55BC"/>
<path d="M50.0476 188.865C50.2721 187.437 50.4462 186.012 50.6678 184.533C50.7015 184.228 50.2395 184.102 50.1554 184.41C49.8805 185.841 49.6057 187.272 49.328 188.652C49.2074 189.215 49.9747 189.375 50.0476 188.865Z" fill="#2D55BC"/>
<path d="M53.3181 190.404C53.879 187.743 54.2327 184.993 53.9311 182.28C53.9171 182.028 53.5139 182.05 53.5278 182.302C53.527 185.032 53.5206 187.662 53.1137 190.364C53.0213 190.521 53.2761 190.558 53.3181 190.404Z" fill="#2D55BC"/>
<path d="M56.4987 193.059C56.5775 191.74 56.6059 190.424 56.6819 189.055C56.7128 188.699 56.1079 188.733 56.077 189.088C55.9982 190.407 55.9698 191.723 55.8938 193.093C55.8656 193.499 56.4705 193.466 56.4987 193.059Z" fill="#2D55BC"/>
<path d="M62.9636 197.506C62.9558 195.534 63.2365 193.294 62.8282 191.395C62.7555 190.995 62.1002 191.031 62.0217 191.44C61.7242 193.377 62.1493 195.579 62.3083 197.542C62.3334 197.996 62.9887 197.959 62.9636 197.506Z" fill="#2D55BC"/>
<path d="M41.492 189.591C42.5673 189.835 43.6454 190.129 44.6703 190.376C44.7207 190.373 44.7179 190.323 44.6647 190.275C43.5894 190.031 42.5113 189.737 41.4865 189.49C41.436 189.493 41.4388 189.543 41.492 189.591Z" fill="#2D55BC"/>
<path d="M350.856 13.3696C361.376 9.47667 368.35 3.20653 380.459 4.52839C389.7 5.55466 411.666 13.304 414.315 23.4173C414.936 25.7533 418.52 24.6061 417.899 22.2701C414.858 10.6041 397.568 5.54658 387.466 2.06494C374.302 -2.35447 359.185 1.53028 350.31 12.5166C350.022 12.92 350.341 13.59 350.856 13.3696Z" fill="#2D55BC"/>
<path d="M415.777 23.7381C418.728 25.785 420.769 28.0322 423.03 30.7944C424.241 32.26 428.811 37.2616 427.482 39.3701C426.969 40.1908 427.946 41.2051 428.744 40.9132C432.843 39.5456 428.526 33.9995 427.271 32.1244C424.846 28.5928 420.909 22.53 416.05 22.798C415.45 22.7997 415.36 23.5133 415.777 23.7381Z" fill="#2D55BC"/>
<path d="M428.187 41.3245C430.942 41.5286 433.594 47.9764 434.885 49.9926C436.361 52.3827 441.659 60.1438 437.781 62.6267C436.477 63.4072 437.768 65.4235 439.073 64.6429C443.479 61.8761 440.671 55.5276 438.846 51.9943C437.206 48.8349 435.142 45.7826 433.205 42.7581C432.077 40.9109 430.35 39.6657 428.176 39.8554C427.102 39.8867 427.205 41.2425 428.187 41.3245Z" fill="#2D55BC"/>
<path d="M437.6 63.4535C441.02 69.1364 443.251 73.5584 444.032 80.3293C444.765 87.0226 444.728 93.8806 444.309 100.655C444.879 100.18 445.373 99.7549 445.943 99.2801C438.446 97.9028 430.074 96.8671 423.761 92.2164C422.791 91.4705 421.29 92.5412 422.049 93.6409C426.552 100.161 438.242 100.658 445.372 101.888C446.276 102.019 446.952 101.368 447.006 100.513C447.44 91.5422 449.849 66.8726 437.692 63.3402C437.642 63.2627 437.551 63.3759 437.6 63.4535Z" fill="#2D55BC"/>
<path d="M422.403 91.7188C419.609 90.1729 416.254 89.9705 413.305 88.5239C409.266 86.5719 406.27 83.5151 404.211 79.5305C403.174 77.57 400.227 79.457 401.342 81.3679C403.592 85.3943 406.729 88.4153 410.698 90.6854C413.909 92.4561 419.118 93.9316 422.375 91.846C422.503 91.8739 422.467 91.7328 422.403 91.7188Z" fill="#2D55BC"/>
<path d="M423.47 94.1524C423.079 93.2001 422.546 92.2834 421.922 91.48C421.521 91.7919 421.183 92.1178 420.781 92.4297C421.977 93.3586 423.173 94.2875 424.384 95.1528C424.763 94.6361 425.066 94.1691 425.446 93.6525C424.166 93.1052 423.21 92.2957 422.451 91.1961C421.831 91.5933 421.211 91.9906 420.59 92.3878C421.115 93.0361 421.49 93.4518 422.275 93.8239C422.933 94.1681 423.609 93.5164 423.417 92.8742C423.188 92.0909 422.827 91.6117 422.302 90.9634C421.438 90.0406 419.881 91.3657 420.668 92.3382C421.816 93.7898 423.139 94.7466 424.878 95.3279C425.932 95.6922 426.344 94.1161 425.523 93.6028C424.236 92.7872 423.012 91.9855 421.738 91.1063C420.917 90.593 420.229 91.9086 421.049 92.4218C421.87 92.9351 422.613 93.498 423.328 94.1881C423.336 94.4565 423.505 94.2936 423.47 94.1524Z" fill="#2D55BC"/>
<path d="M401.667 78.9727C393.032 82.479 387.14 74.3876 380.815 70.401C379.817 69.7823 378.365 70.9305 378.842 72.1016C381.957 79.784 395.266 85.9687 402.59 80.8417C403.407 80.1543 402.774 78.4823 401.667 78.9727Z" fill="#2D55BC"/>
<path d="M379.825 70.0506C354.056 63.5338 353.14 39.1349 352.823 16.8672C352.774 14.6567 349.462 14.8638 349.384 17.0464C348.943 36.0815 351.749 74.3604 379.669 72.2829C380.961 72.1662 381.083 70.3931 379.825 70.0506Z" fill="#2D55BC"/>
<path d="M445.421 99.2321C441.63 94.9346 439.241 89.4113 436.177 84.5396C432.218 78.272 427.858 72.3164 423.342 66.4601C415.324 55.9028 407.35 45.755 396.994 37.3514C378.071 21.8034 351.425 9.56125 327.211 5.98523C324.498 5.59032 323.514 9.77419 326.29 10.1831C351.586 13.9962 377.652 25.8444 397.536 41.87C408.523 50.745 416.806 62.8271 425.44 73.9194C431.826 82.1859 436.914 93.0339 445.224 99.5222C445.337 99.6137 445.52 99.3872 445.421 99.2321Z" fill="#2D55BC"/>
<path d="M417.94 24.2122C403.583 14.5981 378.913 12.1887 362.713 17.9693C361.698 18.3465 361.949 19.9349 363.037 19.84C371.256 19.4425 379.198 18.1841 387.47 18.4645C398.001 18.7737 407.68 22.3625 417.912 24.3395C417.976 24.3534 418.004 24.2262 417.94 24.2122Z" fill="#2D55BC"/>
<path d="M380.323 71.4264C378.246 63.5715 375.049 56.871 374.284 48.5039C373.476 40.3276 375.58 32.2561 374.886 24.1713C374.791 23.0839 373.399 23.0454 373.049 24.0352C368.763 36.8943 367.564 62.4293 379.625 71.8733C379.965 72.1478 380.43 71.8499 380.323 71.4264Z" fill="#2D55BC"/>
<path d="M430.105 40.4786C419.128 34.6052 405.911 33.7737 393.616 34.211C392.006 34.2579 392.154 36.6235 393.736 36.7038C406.14 37.2903 417.928 37.3418 429.902 41.1007C430.284 41.1843 430.473 40.6259 430.105 40.4786Z" fill="#2D55BC"/>
<path d="M402.75 79.8101C401.482 73.7327 398.994 68.0543 397.946 61.8915C396.796 54.9734 397.207 47.9307 398.509 41.0833C398.78 39.5429 396.363 39.0129 396.092 40.5534C393.81 52.7853 393.787 69.9123 402.221 80.0941C402.37 80.3268 402.807 80.156 402.75 79.8101Z" fill="#2D55BC"/>
<path d="M438.443 64.1715C431.688 60.6239 423.798 57.694 416.009 58.2527C415.395 58.318 415.341 59.1728 415.913 59.2983C423.524 60.767 430.928 61.6572 438.309 64.4756C438.5 64.5174 438.683 64.2909 438.443 64.1715Z" fill="#2D55BC"/>
<path d="M423.201 91.427C421.201 83.5224 423.985 76.6002 424.231 68.7882C424.286 67.9335 422.95 67.6406 422.641 68.4396C419.561 75.4968 419.212 84.6863 421.698 91.8974C422.011 92.8994 423.451 92.4151 423.201 91.427Z" fill="#2D55BC"/>
<path d="M366.789 8.19719C364.728 8.47845 362.738 9.04202 360.819 9.88789C359.274 10.5491 357.355 11.3949 356.434 12.8595C356.237 13.1496 356.627 13.5017 356.846 13.4163C358.377 12.8187 359.665 11.5014 361.16 10.7627C362.966 9.82533 364.892 9.24782 366.841 8.87506C367.264 8.76793 367.121 8.20331 366.789 8.19719Z" fill="#2D55BC"/>
<path d="M364.065 11.1994C362.019 12.0174 360.185 13.082 358.537 14.5204C358.304 14.6694 358.63 15.0074 358.877 14.7949C360.448 13.4062 362.231 12.264 364.15 11.4182C364.227 11.3685 364.206 11.1637 364.065 11.1994Z" fill="#2D55BC"/>
<path d="M371.233 11.038C367.232 12.5607 363.353 14.4432 359.722 16.7135C359.412 16.9121 359.71 17.3774 360.02 17.1788C363.637 14.9721 367.453 13.0756 371.403 11.4754C371.572 11.3124 371.465 10.889 371.233 11.038Z" fill="#2D55BC"/>
<path d="M380.462 20.3276C379.374 20.4225 378.336 20.5949 377.285 20.8309C376.297 21.0809 375.054 21.2751 374.251 21.8989C374.018 22.0479 374.111 22.5349 374.457 22.4775C375.354 22.3407 376.27 21.8085 377.131 21.5306C378.211 21.1673 379.34 20.8816 380.519 20.6735C380.674 20.5742 380.666 20.3058 380.462 20.3276Z" fill="#2D55BC"/>
<path d="M383.681 22.3667C382.347 22.6741 381.013 22.9816 379.693 23.2254C378.359 23.5329 376.926 23.6853 375.741 24.2254C375.444 24.3604 375.46 24.8971 375.869 24.8536C377.084 24.7866 378.241 24.3737 379.37 24.088C380.859 23.6812 382.412 23.2884 383.901 22.8816C384.183 22.8102 383.963 22.2953 383.681 22.3667Z" fill="#2D55BC"/>
<path d="M396.135 25.764C391.269 25.7636 385.611 25.7231 380.919 27.3607C380.559 27.4818 380.625 28.0961 381.02 28.1161C386.083 27.8264 390.974 26.499 396.087 26.2868C396.482 26.3068 396.467 25.7701 396.135 25.764Z" fill="#2D55BC"/>
<path d="M390.981 28.9002C389.223 29.3148 387.466 29.7294 385.722 30.0804C385.299 30.1876 385.505 30.7661 385.915 30.7226C387.672 30.308 389.38 29.8158 391.138 29.4012C391.484 29.3438 391.327 28.8428 390.981 28.9002Z" fill="#2D55BC"/>
<path d="M391.94 30.9104C391.389 30.9896 390.888 31.1464 390.338 31.2257C389.992 31.2832 390.121 31.9114 390.467 31.8539C391.003 31.8383 391.554 31.759 392.091 31.7434C392.691 31.7417 392.568 30.7815 391.94 30.9104Z" fill="#2D55BC"/>
<path d="M398.94 41.2445C402.689 40.8667 406.615 40.5943 410.444 40.7671C410.839 40.7872 410.929 40.0736 410.47 40.0396C406.415 39.6838 402.757 39.9484 398.855 41.0258C398.777 41.0755 398.799 41.2802 398.94 41.2445Z" fill="#2D55BC"/>
<path d="M402.654 43.4588C407.167 43.2483 411.709 43.5109 416.265 43.71C416.66 43.73 416.75 43.0164 416.291 42.9824C411.733 42.1831 407.235 42.33 402.603 42.7809C402.193 42.8244 402.245 43.5023 402.654 43.4588Z" fill="#2D55BC"/>
<path d="M419.919 47.1109C415.262 46.1565 410.572 46.2615 405.914 47.44C405.568 47.4975 405.711 48.0621 406.071 47.941C410.63 46.6074 415.206 46.4109 419.891 47.2381C419.954 47.2521 419.982 47.1249 419.919 47.1109Z" fill="#2D55BC"/>
<path d="M413.135 48.5567C412.394 48.5941 411.652 48.6315 410.897 48.7325C410.156 48.7699 409.301 48.7158 408.567 49.0216C408.207 49.1427 408.223 49.6794 408.605 49.7631C409.255 49.8389 409.883 49.71 410.575 49.5951C411.471 49.4584 412.29 49.3713 413.187 49.2346C413.61 49.1274 413.609 48.5271 413.135 48.5567Z" fill="#2D55BC"/>
<path d="M421.391 53.1665C418.387 52.5747 415.032 52.3723 412.103 53.2634C411.539 53.4062 411.831 54.2035 412.395 54.0606C415.459 53.4658 418.24 52.9424 421.377 53.2301C421.44 53.2441 421.468 53.1169 421.391 53.1665Z" fill="#2D55BC"/>
<path d="M420.07 55.5433C418.289 55.1528 415.653 54.7083 413.961 55.7371C413.496 56.0351 413.738 56.7548 414.274 56.7391C415.143 56.7296 416.032 56.3246 416.928 56.1878C417.903 56.0015 418.962 56.0338 419.944 56.1158C420.276 56.1219 420.388 55.6131 420.07 55.5433Z" fill="#2D55BC"/>
<path d="M400.45 43.1754C399.176 47.1624 399.372 51.7384 400.845 55.6611C400.966 56.021 401.644 55.9696 401.601 55.5601C400.847 51.3953 400.589 47.4056 400.641 43.2173C400.669 43.0901 400.478 43.0482 400.45 43.1754Z" fill="#2D55BC"/>
<path d="M403.877 46.3934C403.349 49.4107 403.294 52.3983 403.684 55.4836C403.741 55.8295 404.278 55.8139 404.221 55.468C403.817 52.4463 403.858 49.5222 404.309 46.5546C404.315 46.2227 403.933 46.139 403.877 46.3934Z" fill="#2D55BC"/>
<path d="M407.052 50.1559C406.504 53.5688 405.943 57.6455 406.878 60.9835C406.949 61.2658 407.373 61.1587 407.428 60.9043C407.482 57.3163 406.907 53.8572 407.37 50.2257C407.412 50.0349 407.108 49.9015 407.052 50.1559Z" fill="#2D55BC"/>
<path d="M410.236 54.7871C409.805 57.3591 409.446 60.2135 409.87 62.8396C409.928 63.1855 410.401 63.1559 410.407 62.8239C410.456 60.1682 410.223 57.584 410.554 54.8568C410.596 54.666 410.278 54.5963 410.236 54.7871Z" fill="#2D55BC"/>
<path d="M413.214 58.8397C413 60.7261 412.659 62.5845 412.855 64.4273C412.899 64.8368 413.549 64.9127 413.583 64.4535C413.924 62.5951 413.664 60.7383 413.546 58.8459C413.574 58.7187 413.256 58.6489 413.214 58.8397Z" fill="#2D55BC"/>
<path d="M428.27 63.1408C425.379 62.6405 422.241 61.7523 419.303 61.7748C418.971 61.7686 419.001 62.2418 419.255 62.2975C422.075 63.1159 425.282 63.0857 428.214 63.3952C428.355 63.3595 428.397 63.1687 428.27 63.1408Z" fill="#2D55BC"/>
<path d="M428.936 66.4866C425.911 65.69 422.88 65.2254 419.793 65.0152C419.397 64.9951 419.385 65.659 419.844 65.693C422.881 65.8257 425.849 66.2764 428.838 66.9319C429.107 66.924 429.19 66.5424 428.936 66.4866Z" fill="#2D55BC"/>
<path d="M434.213 71.91C431.371 70.8869 428.557 69.7366 425.659 68.9678C425.213 68.8702 424.919 69.6056 425.35 69.7668C428.164 70.9171 431.203 71.6501 434.073 72.5461C434.455 72.6297 434.58 72.0573 434.213 71.91Z" fill="#2D55BC"/>
<path d="M434.117 75.6888C433.064 75.3245 432.011 74.9602 430.971 74.5323C430.781 74.4905 430.725 74.7449 430.838 74.8364C431.877 75.2643 432.917 75.6922 433.97 76.0565C434.274 76.1898 434.436 75.7585 434.117 75.6888Z" fill="#2D55BC"/>
<path d="M437.646 79.6622C435.587 78.4109 432.962 76.702 430.475 76.4901C430.143 76.484 429.919 76.9013 430.272 77.1122C431.298 77.6037 432.457 77.7911 433.51 78.1554C434.881 78.5894 436.211 79.2142 437.527 79.9027C437.654 79.9306 437.759 79.7537 437.646 79.6622Z" fill="#2D55BC"/>
<path d="M438.453 82.9723C436.579 82.0948 434.705 81.2172 432.881 80.4172C432.704 80.3118 432.571 80.6159 432.747 80.7213C434.635 81.5352 436.537 82.2856 438.425 83.0995C438.489 83.1135 438.517 82.9863 438.453 82.9723Z" fill="#2D55BC"/>
<path d="M426.353 74.9197C426.259 76.5656 426.243 78.1618 426.148 79.8076C426.17 80.0124 426.438 80.0046 426.48 79.8138C426.574 78.1679 426.669 76.522 426.763 74.8762C426.819 74.6218 426.346 74.6513 426.353 74.9197Z" fill="#2D55BC"/>
<path d="M429.621 79.1693C429.191 81.7413 429.036 84.5739 429.806 87.1425C429.878 87.4248 430.365 87.3316 430.357 87.0633C430.074 84.4014 429.799 82.008 430.194 79.2948C430.2 78.9628 429.691 78.8513 429.621 79.1693Z" fill="#2D55BC"/>
<path d="M433.014 84.9793C433.365 86.7228 433.793 88.4167 434.144 90.1602C434.287 90.7248 435.084 90.4329 434.941 89.8683C434.513 88.1745 434.098 86.4171 433.67 84.7232C433.64 84.2501 432.921 84.4923 433.014 84.9793Z" fill="#2D55BC"/>
<path d="M377.981 27.3831C377.276 30.2949 377.193 33.4098 378.599 36.1179C378.734 36.4142 379.235 36.2574 379.178 35.9115C378.795 33.0945 378.308 30.4545 378.935 27.5923C379.075 26.9563 378.121 26.7471 377.981 27.3831Z" fill="#2D55BC"/>
<path d="M381.123 29.4719C381.018 32.382 381.259 35.2347 381.755 38.1431C381.834 38.6937 382.603 38.5291 382.51 38.0421C381.923 35.2469 381.619 32.3803 381.582 29.5059C381.525 29.16 381.115 29.2035 381.123 29.4719Z" fill="#2D55BC"/>
<path d="M385.34 32.1297C384.911 35.302 384.949 38.7768 386.081 41.8246C386.152 42.1069 386.639 42.0138 386.631 41.7454C386.064 38.5547 385.646 35.5966 386.103 32.297C386.151 31.7743 385.388 31.6069 385.34 32.1297Z" fill="#2D55BC"/>
<path d="M389.892 35.9942C389.153 39.3652 388.549 43.0325 388.996 46.4636C389.004 46.732 389.414 46.6885 389.406 46.4201C389.445 42.8957 389.457 39.4986 390.097 35.9725C390.111 35.9089 389.92 35.867 389.892 35.9942Z" fill="#2D55BC"/>
<path d="M356.404 17.2526C356.253 21.2858 356.512 25.2755 357.744 29.0788C357.852 29.5022 358.43 29.2958 358.387 28.8863C357.641 24.9898 356.945 21.1708 356.878 17.223C356.806 16.9407 356.397 16.9842 356.404 17.2526Z" fill="#2D55BC"/>
<path d="M360.089 18.9937C359.102 21.977 359.118 25.2469 360.073 28.1894C360.158 28.4081 360.504 28.3506 360.496 28.0822C360.106 24.9969 359.956 22.031 360.167 18.9441C360.181 18.8805 360.103 18.9301 360.089 18.9937Z" fill="#2D55BC"/>
<path d="M363.44 20.1284C363.13 23.0603 363.012 26.034 363.175 28.9363C363.169 29.2683 363.706 29.2526 363.712 28.9207C363.548 26.0184 363.59 23.0943 363.885 20.226C363.891 19.8941 363.446 19.7964 363.44 20.1284Z" fill="#2D55BC"/>
<path d="M367.587 23.1042C367.22 25.6902 366.924 28.5585 367.362 31.121C367.384 31.3258 367.653 31.3179 367.694 31.1271C367.743 28.4714 367.588 25.8375 367.969 23.1879C367.897 22.9056 367.579 22.8359 367.587 23.1042Z" fill="#2D55BC"/>
<path d="M376.352 10.4938C382.601 10.2643 389.004 11.4681 395.165 12.5525C395.42 12.6083 395.503 12.2266 395.263 12.1073C388.958 10.4583 382.842 10.3837 376.344 10.2255C376.252 10.3387 376.21 10.5295 376.352 10.4938Z" fill="#2D55BC"/>
<path d="M374.804 7.82142C378.202 7.83302 381.585 7.90823 384.982 7.91983C385.455 7.89025 385.418 7.14877 384.945 7.17836C381.547 7.16676 378.15 7.15515 374.753 7.14355C374.344 7.18708 374.395 7.86495 374.804 7.82142Z" fill="#2D55BC"/>
<path d="M388.051 51.9893C388.698 58.464 389.371 64.2111 391.684 70.3844C391.891 70.963 392.815 70.699 392.609 70.1205C390.502 64.5257 388.528 58.0266 388.242 52.0312C388.22 51.8264 388.016 51.8482 388.051 51.9893Z" fill="#2D55BC"/>
<path d="M385.494 46.6289C385.434 47.8156 385.423 49.0799 385.363 50.2666C385.371 50.5349 385.78 50.4914 385.772 50.223C385.769 49.0224 385.765 47.8217 385.776 46.5575C385.868 46.4442 385.536 46.4381 385.494 46.6289Z" fill="#2D55BC"/>
<path d="M381.995 43.1286C381.803 50.0859 381.533 57.0929 383.925 63.8168C384.096 64.2542 384.738 64.0617 384.645 63.5747C383.044 56.8908 381.393 50.1294 382.186 43.1705C382.228 42.9797 381.959 42.9875 381.995 43.1286Z" fill="#2D55BC"/>
<path d="M378.942 42.4592C378.788 45.2918 378.478 48.2237 378.719 51.0763C378.763 51.4858 379.413 51.5617 379.447 51.1025C379.742 48.2342 379.515 45.318 379.493 42.38C379.485 42.1116 378.948 42.1273 378.942 42.4592Z" fill="#2D55BC"/>
<path d="M366.528 33.4046C366.464 35.5236 365.354 37.5466 365.671 39.7493C365.714 40.1588 366.3 40.2207 366.398 39.7755C367.063 37.6548 366.4 35.5096 366.733 33.3828C366.698 33.2417 366.507 33.1998 366.528 33.4046Z" fill="#2D55BC"/>
<path d="M362.341 31.2199C362.1 33.2335 361.858 35.247 361.553 37.2466C361.477 37.8966 362.332 37.9507 362.408 37.3007C362.522 35.2593 362.636 33.2178 362.751 31.1764C362.793 30.9856 362.397 30.9655 362.341 31.2199Z" fill="#2D55BC"/>
<path d="M355.646 28.6186C355.516 37.7227 356.982 46.8436 361.405 54.9461C361.703 55.4114 362.451 55.042 362.294 54.541C359 46.1528 356.321 37.6993 355.85 28.5968C355.878 28.4696 355.673 28.4914 355.646 28.6186Z" fill="#2D55BC"/>
<path d="M362.548 44.2641C362.771 45.9797 362.931 47.6814 363.155 49.397C363.185 49.8701 363.99 49.8466 363.897 49.3595C363.673 47.6439 363.435 45.992 363.211 44.2764C363.104 43.8529 362.44 43.8406 362.548 44.2641Z" fill="#2D55BC"/>
<path d="M416.945 26.9271C411.845 24.3424 406.042 22.5367 400.229 22.5954C399.961 22.6032 399.955 22.9352 400.209 22.991C405.87 24.2322 411.382 25.2407 416.839 27.104C416.953 27.1955 417.058 27.0186 416.945 26.9271Z" fill="#2D55BC"/>
<path d="M421.594 32.4794C418.801 31.5338 415.852 30.0872 412.934 29.7141C412.538 29.694 412.286 30.2385 412.653 30.3858C415.312 31.6355 418.64 31.9651 421.552 32.6702C421.679 32.6981 421.721 32.5073 421.594 32.4794Z" fill="#2D55BC"/>
<path d="M410.349 27.2141C408.222 26.8811 406.123 26.4209 403.976 26.4835C403.503 26.5131 403.414 27.2266 403.922 27.3382C406.035 27.7348 408.168 27.7359 410.301 27.7369C410.619 27.8066 410.603 27.2699 410.349 27.2141Z" fill="#2D55BC"/>
<path d="M403.78 29.5068C402.261 29.4405 400.757 29.3105 399.238 29.2442C399.174 29.2303 399.147 29.3575 399.21 29.3714C400.729 29.4378 402.234 29.5677 403.752 29.634C403.879 29.6619 403.844 29.5208 403.78 29.5068Z" fill="#2D55BC"/>
<path d="M427.593 43.7274C423.954 42.9961 419.911 41.9764 416.19 42.227C415.844 42.2845 415.796 42.8073 416.114 42.877C419.845 43.4951 423.729 43.4135 427.551 43.9183C427.679 43.9461 427.72 43.7553 427.593 43.7274Z" fill="#2D55BC"/>
<path d="M427.697 47.8164C426.693 47.5297 425.739 47.3205 424.735 47.0338C424.481 46.978 424.383 47.4232 424.637 47.479C425.655 47.7021 426.609 47.9113 427.627 48.1344C427.818 48.1763 427.873 47.9219 427.697 47.8164Z" fill="#2D55BC"/>
<path d="M431.714 52.2969C430.138 51.8847 428.498 51.4585 426.936 50.9826C426.808 50.9547 426.767 51.1456 426.894 51.1735C428.456 51.6493 430.096 52.0755 431.658 52.5514C431.835 52.6568 431.905 52.3388 431.714 52.2969Z" fill="#2D55BC"/>
<path d="M437.193 59.2312C432.97 56.9053 428.53 55.2652 423.712 54.742C423.252 54.708 423.035 55.3937 423.544 55.5053C428.257 56.2053 432.809 57.3366 437.165 59.3584C437.165 59.3584 437.256 59.2451 437.193 59.2312Z" fill="#2D55BC"/>
<path d="M438.275 69.8009C437.108 69.3452 436.019 68.8397 434.853 68.3839C434.612 68.2646 434.387 68.6819 434.642 68.7377C435.808 69.1935 436.975 69.6492 438.092 70.0275C438.319 70.2105 438.515 69.9203 438.275 69.8009Z" fill="#2D55BC"/>
<path d="M439.496 72.1352C438.316 71.7431 437.121 71.4145 435.941 71.0223C435.623 70.9526 435.511 71.4614 435.829 71.5311C437.01 71.9233 438.176 72.3791 439.357 72.7713C439.725 72.9185 439.864 72.2825 439.496 72.1352Z" fill="#2D55BC"/>
<path d="M440.996 78.0636C440.07 77.7272 439.144 77.3909 438.154 77.0405C437.85 76.9072 437.611 77.3881 437.915 77.5214C438.842 77.8578 439.768 78.1942 440.757 78.5446C441.061 78.6779 441.364 78.2109 440.996 78.0636Z" fill="#2D55BC"/>
<path d="M442.286 82.2129C441.81 81.0418 439.518 79.9394 438.347 80.4159C438.051 80.551 438.059 80.8193 438.285 81.0023C438.752 81.3047 439.452 81.4581 440.024 81.5836C440.788 81.751 441.481 82.2363 442.209 82.2625C442.272 82.2765 442.35 82.2268 442.286 82.2129Z" fill="#2D55BC"/>
<path d="M426.24 82.4277C425.582 84.2164 425.087 86.7745 426.102 88.5302C426.301 88.8404 426.866 88.6975 426.822 88.288C426.685 87.3915 426.393 86.5942 426.243 85.7612C426.084 84.6599 426.194 83.5507 426.431 82.4695C426.445 82.4059 426.268 82.3005 426.24 82.4277Z" fill="#2D55BC"/>
<path d="M428.268 87.4717C428.708 88.5016 428.656 89.9567 428.814 91.058C428.872 91.4039 429.295 91.2968 429.238 90.9509C428.952 89.8217 428.426 88.5731 428.486 87.3864C428.5 87.3228 428.232 87.3306 428.268 87.4717Z" fill="#2D55BC"/>
<path d="M433.128 90.5373C433.491 91.6169 433.855 92.6965 434.154 93.7621C434.19 93.9032 434.409 93.8179 434.373 93.6767C434.01 92.5972 433.633 91.5812 433.206 90.4877C433.22 90.4241 433.142 90.4737 433.128 90.5373Z" fill="#2D55BC"/>
<path d="M417.112 66.294C415.004 72.5645 413.848 78.4439 415.604 85.0285C415.725 85.3883 416.29 85.2455 416.233 84.8996C415.17 78.8004 414.883 72.2047 417.303 66.3358C417.381 66.2862 417.204 66.1807 417.112 66.294Z" fill="#2D55BC"/>
<path d="M412.83 70.6214C412.336 73.1795 411.478 76.7909 412.325 79.3099C412.446 79.6697 413.11 79.682 413.13 79.2864C413.332 78.064 413.088 76.744 413.021 75.5294C412.974 73.9192 413.054 72.337 413.212 70.705C413.268 70.4506 412.886 70.367 412.83 70.6214Z" fill="#2D55BC"/>
<path d="M409.333 64.9882C408.524 68.6772 407.392 73.2287 408.166 76.998C408.223 77.3439 408.824 77.3422 408.907 76.9606C409.178 75.4202 409.054 73.8597 409.071 72.2635C409.127 69.8761 409.389 67.467 409.714 65.0718C409.77 64.8174 409.388 64.7338 409.333 64.9882Z" fill="#2D55BC"/>
<path d="M403.715 64.1565C403.804 65.5759 403.893 66.9952 403.982 68.4145C403.997 68.9513 404.944 68.8921 404.864 68.3414C404.648 66.8942 404.482 65.5245 404.266 64.0773C404.195 63.795 403.658 63.8106 403.715 64.1565Z" fill="#2D55BC"/>
<path d="M401.155 60.3287C401.123 61.3882 401.076 62.5113 401.044 63.5708C401.052 63.8391 401.461 63.7956 401.454 63.5272C401.486 62.4677 401.532 61.3447 401.565 60.2852C401.62 60.0307 401.147 60.0603 401.155 60.3287Z" fill="#2D55BC"/>
<path d="M392.113 72.0782C392.279 73.4479 392.262 75.0441 392.866 76.2431C393.186 76.9131 394.152 76.4584 394.15 75.8581C394.224 74.6078 393.486 73.1126 393.15 71.9058C392.958 71.2636 391.984 71.45 392.113 72.0782Z" fill="#2D55BC"/>
<path d="M385.715 65.076C386.065 66.2191 386.414 67.3623 386.749 68.5691C386.87 68.9289 387.308 68.7582 387.25 68.4123C386.978 67.2195 386.707 66.0266 386.421 64.8974C386.342 64.3468 385.622 64.5889 385.715 65.076Z" fill="#2D55BC"/>
<path d="M365.549 51.855C365.944 54.0081 366.621 56.0896 367.594 58.0362C367.927 58.6426 368.858 58.0467 368.524 57.4403C367.523 55.621 366.882 53.6805 366.46 51.6547C366.367 51.1677 365.456 51.368 365.549 51.855Z" fill="#2D55BC"/>
<path d="M331.095 32.5598C331.095 33.5649 331.116 34.5651 331.158 35.5598H33.5319V120.794C32.897 120.777 32.2599 120.768 31.6209 120.768C31.2572 120.768 30.8942 120.771 30.5319 120.777V32.5598H331.095Z" fill="#2D55BC"/>
<path d="M101.317 190.464H401.879V102.247C401.517 102.253 401.154 102.256 400.79 102.256C400.151 102.256 399.514 102.247 398.879 102.23V187.464H101.253C101.295 188.459 101.317 189.459 101.317 190.464Z" fill="#2D55BC"/>
</svg>
